<?xml version="1.0" standalone="no"?>
<!DOCTYPE svg PUBLIC "-//W3C//DTD SVG 20010904//EN"
 "http://www.w3.org/TR/2001/REC-SVG-20010904/DTD/svg10.dtd">
<svg version="1.0" xmlns="http://www.w3.org/2000/svg"
 width="512.000000pt" height="512.000000pt" viewBox="0 0 512.000000 512.000000"
 preserveAspectRatio="xMidYMid meet">

<g transform="translate(0.000000,512.000000) scale(0.100000,-0.100000)"
fill="#000000" stroke="none">
<path d="M2350 4794 c-300 -36 -512 -97 -765 -219 -463 -223 -817 -577 -1040
-1040 -103 -213 -160 -390 -202 -630 -25 -142 -25 -548 0 -690 42 -240 99
-417 202 -630 223 -463 577 -817 1040 -1040 213 -103 390 -160 630 -202 142
-25 548 -25 690 0 240 42 417 99 630 202 463 223 817 577 1040 1040 103 213
160 390 202 630 25 142 25 548 0 690 -42 240 -99 417 -202 630 -223 463 -577
817 -1040 1040 -213 103 -394 161 -625 201 -91 15 -477 28 -560 18z m380 -325
c585 -53 1108 -367 1433 -859 321 -487 401 -1099 216 -1655 -190 -569 -645
-1024 -1214 -1214 -393 -131 -817 -131 -1210 0 -569 190 -1024 645 -1214 1214
-185 556 -105 1168 216 1655 392 594 1073 924 1773 859z"/>
<path d="M1841 3667 c-51 -16 -138 -102 -172 -170 -118 -232 -80 -551 81 -701
112 -103 228 -103 340 0 201 187 200 625 -3 810 -76 70 -157 90 -246 61z"/>
<path d="M3121 3667 c-51 -16 -138 -102 -172 -170 -118 -232 -80 -551 81 -701
112 -103 228 -103 340 0 201 187 200 625 -3 810 -76 70 -157 90 -246 61z"/>
<path d="M1199 2377 c-50 -34 -79 -82 -79 -134 0 -48 51 -196 105 -304 99
-195 307 -432 490 -556 520 -352 1170 -352 1690 0 183 124 391 361 490 556 54
108 105 256 105 304 0 82 -75 157 -157 157 -85 0 -131 -42 -172 -156 -159
-448 -533 -745 -1003 -796 -398 -43 -825 153 -1060 487 -61 86 -122 204 -159
309 -41 114 -87 156 -172 156 -29 0 -55 -8 -78 -23z"/>
</g>
</svg>
