<svg width="1136" height="758" xmlns="http://www.w3.org/2000/svg" xmlns:xlink="http://www.w3.org/1999/xlink" overflow="hidden"><defs><clipPath id="clip0"><rect x="-1" y="-1" width="1136" height="758"></rect></clipPath></defs><g clip-path="url(#clip0)" transform="translate(1 1)"><path d="M0 0 1134 0 1134 756 0 756Z" fill="#ED2939" fill-rule="evenodd"></path><path d="M0 378 1134 378 1134 756 0 756Z" fill="#FFFFFF" fill-rule="evenodd"></path><path d="M389 189C389 267.424 325.424 331 247 331 168.576 331 105 267.424 105 189 105 110.576 168.576 47 247 47 325.424 47 389 110.576 389 189Z" fill="#FFFFFF" fill-rule="evenodd"></path><path d="M434 189C434 263.006 373.782 323 299.5 323 225.218 323 165 263.006 165 189 165 114.994 225.218 55 299.5 55 373.782 55 434 114.994 434 189Z" fill="#ED2939" fill-rule="evenodd"></path><path d="M264.165 191.993 245.004 177.294 225.847 192 233.222 168.297 214 153.686 237.72 153.736 244.996 130 252.28 153.734 276 153.675 256.782 168.293 264.165 191.993Z" fill="#FFFFFF" fill-rule="evenodd"></path><path d="M416.036 191.993 396.565 177.294 377.099 192 384.594 168.297 365.061 153.686 389.163 153.736 396.557 130 403.959 153.734 428.061 153.675 408.534 168.293 416.036 191.993Z" fill="#FFFFFF" fill-rule="evenodd"></path><path d="M340.195 135.971 321.034 121.271 301.877 135.978 309.252 112.275 290.03 97.6639 313.75 97.7141 321.026 73.9777 328.311 97.7114 352.03 97.6527 332.813 112.271 340.195 135.971Z" fill="#FFFFFF" fill-rule="evenodd"></path><path d="M292.986 282.029 273.515 267.329 254.05 282.036 261.544 258.333 242.011 243.722 266.114 243.772 273.507 220.036 280.909 243.769 305.011 243.711 285.484 258.329 292.986 282.029Z" fill="#FFFFFF" fill-rule="evenodd"></path><path d="M387.214 282.029 368.053 267.329 348.896 282.036 356.271 258.333 337.049 243.722 360.768 243.772 368.045 220.036 375.329 243.769 399.049 243.711 379.831 258.329 387.214 282.029Z" fill="#FFFFFF" fill-rule="evenodd"></path></g></svg>