
<svg xmlns="http://www.w3.org/2000/svg" width="500.37299" height="565.32202" viewBox="0 0 132.39035 149.57479" version="1.1">
  <defs id="defs478"></defs>
  <g>
    <g id="g3892" style="image-rendering:optimizeQuality;shape-rendering:geometricPrecision;text-rendering:geometricPrecision" transform="matrix(0.02542058,0,0,0.02542058,63.398934,0)">
      <path id="61386344" class="fil0" d="m 1741,5343 h -253 l -4,-17 h 257 v -49 c 14,2 30,5 47,8 6,1 9,5 9,11 -7,8 -13,15 -19,23 v 7 h 169 l 39,-39 49,38 -8,18 h -249 v 47 h 115 l 40,-39 49,38 -9,18 h -421 l -4,-17 h 193 z m -113,185 c -1,6 -2,10 -5,12 -3,1 -8,2 -15,3 -6,-1 -11,-2 -14,-3 -3,-2 -4,-6 -4,-13 v -105 l 34,21 h 1 269 l 21,-17 32,22 c 3,2 5,5 4,11 -1,6 -5,9 -10,11 -5,1 -7,4 -7,8 v 57 c -1,3 -3,5 -8,5 -9,1 -16,2 -23,2 -5,1 -7,0 -7,-4 v -19 h -268 z m 268,-26 v -41 h -268 v 41 z m -392,148 c -7,5 -14,7 -22,7 -5,0 -10,-3 -13,-7 -7,-11 -3,-22 12,-33 25,-20 38,-45 41,-76 h 11 c 0,6 0,12 0,17 h 456 l 27,-23 36,28 c 8,5 11,11 9,17 -2,9 -8,12 -19,11 -6,0 -11,2 -14,6 -15,21 -29,40 -41,55 l -12,-6 c 11,-24 18,-48 22,-71 h -465 c -5,36 -14,61 -28,75 l 231,142 h -176 l -4,-17 h 180 v -45 c -60,4 -114,7 -160,10 -3,0 -5,3 -5,8 -1,9 -5,13 -13,13 -7,0 -12,-4 -14,-15 -3,-15 -6,-30 -9,-47 34,3 68,5 103,6 14,-21 26,-44 35,-71 h -102 l -4,-17 h 297 l 38,-37 45,36 -8,18 h -224 c -17,27 -35,50 -54,71 63,-1 132,-7 209,-21 -15,-8 -28,-13 -40,-14 l 4,-14 c 19,1 40,6 63,14 24,9 41,19 51,29 4,6 7,12 7,17 1,8 -1,13 -4,16 -5,3 -9,5 -14,5 -6,-1 -10,-4 -13,-7 -11,-11 -21,-21 -31,-30 -36,9 -76,16 -119,24 v 51 h 108 l 38,-36 45,35 -8,18 h -183 v 60 h 181 l 40,-39 49,38 -8,18 h -552 l -4,-17 h 256 v -60 z" style="fill:#4c4c4c;fill-opacity:1"></path>
      <path id="61386432" class="fil0" d="m 2310,5483 h -171 l -5,-17 h 176 v -185 c 16,3 31,6 44,7 10,2 15,6 16,11 0,7 -4,12 -12,15 -7,3 -11,8 -11,13 v 547 c 0,4 -2,7 -6,7 -10,2 -19,3 -27,3 -3,0 -5,-2 -4,-6 v -156 c -29,19 -71,40 -126,63 -23,8 -34,14 -34,18 2,9 0,15 -6,18 -7,2 -13,-1 -17,-10 -6,-13 -13,-29 -21,-49 62,-4 130,-25 204,-62 z m 348,-106 c 12,9 23,17 34,25 4,3 5,7 5,11 0,4 -2,8 -6,9 -4,1 -7,0 -11,-2 -4,-1 -6,0 -8,2 -42,48 -99,85 -169,109 v 268 c 0,10 1,16 3,21 3,5 7,8 14,10 12,3 30,4 56,4 27,-1 47,-2 60,-4 5,-1 9,-3 12,-7 10,-6 20,-30 29,-73 l 16,1 c -1,41 1,63 7,66 9,4 14,11 14,19 0,11 -9,19 -27,24 -18,6 -54,10 -108,11 -35,0 -61,-2 -80,-5 -11,-4 -20,-10 -27,-19 -5,-11 -7,-22 -7,-34 v -536 l 46,9 c 8,2 12,6 12,13 -1,6 -6,10 -16,13 -3,1 -4,3 -4,6 v 197 c 67,-35 119,-81 155,-138 z" style="fill:#4c4c4c;fill-opacity:1"></path>
    </g>
    <g id="g4082" style="fill:#ffcc00;fill-opacity:1;image-rendering:optimizeQuality;shape-rendering:geometricPrecision;text-rendering:geometricPrecision" transform="matrix(0.02542058,0,0,0.02542058,63.398934,0)">
      <path style="fill:#ffcc00;fill-opacity:1" d="m -1112,2466 c 30,0 -16,-4 6,7 -6,-2 -25,-7 -6,-7 z" class="fil1" id="61386608"></path>
      <path style="fill:#ffcc00;fill-opacity:1" d="m -1126,3054 c 31,-1 4,8 14,13 -5,-1 -15,0 -20,0 0,-2 0,-4 0,-6 26,-13 -29,-5 6,-7 z" class="fil1" id="61386696"></path>
      <path style="fill:#ffcc00;fill-opacity:1" d="m -1119,3172 c 12,0 5,16 7,26 h -14 c 2,-10 -5,-26 7,-26 z" class="fil1" id="61386784"></path>
      <path style="fill:#ffcc00;fill-opacity:1" d="m -916,3662 c 30,0 -16,-4 6,7 -6,-2 -25,-7 -6,-7 z" class="fil1" id="61386872"></path>
      <path style="fill:#ffcc00;fill-opacity:1" d="m -993,3452 c 0,3 0,7 0,10 -1,-1 -47,7 9,18 -2,-11 6,-31 -9,-28 z" class="fil1" id="61386960"></path>
      <path style="fill:#ffcc00;fill-opacity:1" d="m -1114,3415 c 11,2 1,7 9,37 h -19 c 2,-12 -6,-41 10,-37 z" class="fil1" id="61387048"></path>
      <path style="fill:#ffcc00;fill-opacity:1" d="m -1031,3378 c 4,8 -2,19 0,28 4,0 7,0 10,0 6,21 2,16 9,37 h 19 c 0,-10 3,-19 0,-28 -2,-4 -19,-6 -28,-9 -1,-5 0,-22 0,-28 -3,0 -6,0 -10,0 z" class="fil1" id="61387136"></path>
      <path style="fill:#ffcc00;fill-opacity:1" d="m -1114,3350 c 0,3 0,6 0,9 0,19 -5,3 9,9 0,8 -2,21 0,28 -1,-1 -16,8 -19,10 v -19 c -3,0 -6,0 -9,0 -2,-9 9,-37 19,-37 z" class="fil1" id="61387224"></path>
      <path style="fill:#ffcc00;fill-opacity:1" d="m -1124,3266 c 3,2 0,24 0,28 14,-6 19,24 -9,18 8,-3 -9,-37 -9,-37 3,0 6,0 9,0 1,-1 -4,-20 9,-9 z" class="fil1" id="61387312"></path>
      <path style="fill:#ffcc00;fill-opacity:1" d="m -1049,3145 c -3,27 -5,43 -9,74 3,0 6,0 9,0 v 19 h 18 c 3,-1 -3,-19 10,-9 5,-34 3,-46 9,-75 -245,-61 221,70 -9,-9 -10,-4 -21,5 -28,0 z" class="fil1" id="61387400"></path>
      <path style="fill:#ffcc00;fill-opacity:1" d="m -1142,2856 c 17,4 7,20 9,37 h -19 v -19 c 3,0 7,0 10,0 0,-3 0,-6 0,-9 -12,0 -17,-14 0,-9 z" class="fil1" id="61387488"></path>
      <path style="fill:#ffcc00;fill-opacity:1" d="m -1124,2380 c 2,1 0,25 0,28 -3,0 -6,0 -9,0 1,-8 -5,-35 9,-28 z" class="fil1" id="61387576"></path>
      <path style="fill:#ffcc00;fill-opacity:1" d="m -1124,2306 c 13,2 0,-1 10,28 h -19 c 2,-12 -6,-32 9,-28 z" class="fil1" id="61387664"></path>
      <path style="fill:#ffcc00;fill-opacity:1" d="m -1105,2138 c -2,1 0,26 0,28 -16,-4 -9,12 9,9 -1,-8 6,-45 -9,-37 z" class="fil1" id="61387752"></path>
      <path style="fill:#ffcc00;fill-opacity:1" d="m -1105,2026 c 2,-8 14,16 -9,28 -8,4 10,11 9,19 h -19 c 8,-26 -10,-22 10,-38 20,-16 -25,-7 9,-9 z" class="fil1" id="61387840"></path>
      <path style="fill:#ffcc00;fill-opacity:1" d="m -602,684 c 10,7 18,13 28,18 0,4 0,7 0,10 7,4 25,2 28,9 6,16 -4,40 0,56 8,-1 16,-5 28,-9 0,-4 0,-6 0,-10 h 19 c 4,5 5,15 9,19 1,1 37,27 37,28 5,10 -2,26 0,37 4,0 7,0 10,0 1,11 0,17 0,28 3,0 6,0 9,0 4,14 -3,23 0,37 3,0 6,0 9,0 6,37 4,45 10,84 3,0 6,0 9,0 3,20 -6,47 0,66 3,0 6,0 9,0 v 18 c 5,3 17,6 19,10 8,18 1,28 9,46 3,0 7,0 10,0 5,24 -6,51 0,75 0,0 11,4 9,18 -3,0 -6,0 -9,0 v 19 c 3,0 6,0 9,0 1,22 0,44 0,65 3,0 6,0 9,0 6,56 0,112 0,168 -3,0 -6,0 -9,0 -2,31 3,63 0,93 -3,0 -6,0 -9,0 0,26 1,50 0,75 -4,0 -7,0 -10,0 -6,69 1,118 -9,186 -3,0 -6,0 -9,0 -6,38 -3,41 -10,75 -3,0 -6,0 -9,0 -6,39 0,82 0,121 -15,1 -10,12 -19,19 4,0 7,0 10,0 0,21 1,44 0,65 -4,0 -6,0 -10,0 -5,49 -3,73 -9,121 -3,0 -6,0 -9,0 -2,10 10,27 9,28 -3,0 -6,0 -9,0 0,38 0,74 0,112 -3,0 -6,0 -10,0 0,0 8,26 10,9 v 19 c -3,0 -6,0 -10,0 -3,44 4,87 0,130 -3,0 -6,0 -9,0 0,86 -9,144 -9,233 -3,0 -6,0 -10,0 0,21 11,24 10,56 -3,0 -6,0 -10,0 0,39 0,74 0,112 -3,0 -6,0 -9,0 -1,18 0,38 0,56 3,0 7,0 9,0 v 19 c -3,0 -6,0 -9,0 -4,17 2,38 0,56 -3,0 -6,0 -9,0 0,3 0,6 0,9 10,5 12,12 9,28 -3,0 -6,0 -9,0 -6,27 -3,30 -10,56 -3,0 -6,0 -9,0 0,3 0,6 0,9 3,0 7,0 9,0 -2,20 7,1 -9,10 0,10 5,37 0,46 h -18 c -3,4 -9,18 -10,19 h -18 c 0,15 4,41 0,56 -62,0 39,7 -10,-10 -13,-4 -33,6 -37,10 v 18 c -20,10 -2,-11 -9,10 1,-17 9,9 9,9 -3,0 -6,0 -9,0 -2,17 -3,4 9,9 -3,20 7,2 -9,10 0,13 3,33 0,46 l -28,19 c -7,17 0,47 0,65 -4,2 -19,9 -19,9 -5,21 15,15 9,28 -3,0 -6,0 -9,0 -6,21 -2,19 -9,38 -3,0 -27,-2 -28,0 -3,-2 -7,-14 -10,-19 -2,0 -25,2 -28,0 v -19 c -3,0 -6,0 -9,0 -3,-1 -7,-13 -9,-18 h -19 c 0,-3 0,-6 0,-10 -24,-8 4,5 -9,10 -15,5 -19,-10 -19,-10 -14,-3 -32,1 -46,0 v 19 c -1,1 -15,7 -19,9 0,4 0,7 0,10 -29,5 -34,-18 -37,-19 -16,-4 -41,4 -56,0 v 19 c 2,1 18,9 18,9 v 19 l 28,18 c 6,14 -3,7 -9,10 8,21 -11,-1 9,9 v 19 c 4,0 7,0 10,0 2,11 -3,16 0,28 -2,-2 -18,-7 -19,-10 -8,-11 1,-20 -9,-28 -9,-6 -29,-3 -38,-9 4,14 -4,23 0,37 4,0 7,0 10,0 v 19 c 3,0 6,0 9,0 4,14 -4,23 0,37 -11,6 -11,-7 -9,10 3,0 6,0 9,0 v 18 c -5,0 -25,-3 -28,0 -7,-25 12,1 -9,-9 0,-13 4,-35 0,-47 l -19,-9 c -7,-12 1,-20 -9,-28 -8,-6 -24,-2 -28,-9 -6,-10 3,-26 0,-38 -3,0 -6,0 -9,0 v -18 c -21,-10 -3,13 -10,-10 8,-4 14,6 10,-9 -4,0 -7,0 -10,0 v -19 c -3,0 -6,0 -9,0 -9,-23 -3,-40 -9,-65 -4,0 -7,0 -10,0 -3,-17 -1,-4 10,-9 -3,-15 -3,-6 -10,-19 3,0 7,0 10,0 -3,-22 7,-1 -10,-9 0,-16 5,-41 0,-56 0,0 -17,-11 -18,-19 3,0 6,0 9,0 4,-16 0,-10 9,-18 0,-3 0,-6 0,-10 -26,-13 7,-52 -18,-65 0,-3 0,-6 0,-9 3,0 6,0 9,0 0,-19 2,-38 0,-56 -3,0 -6,0 -9,0 -3,-15 0,-32 0,-47 -22,-10 -1,13 -10,-9 -5,-13 -9,19 -9,19 -11,4 -17,-47 0,-47 -2,15 9,19 9,19 0,-5 -2,-37 0,-38 3,0 7,0 10,0 4,-18 -5,-14 -10,-28 0,0 33,-12 19,-18 -3,0 -6,0 -9,0 l -10,-28 c -18,-8 -18,16 -28,9 8,-30 4,-38 10,-65 8,-3 12,6 18,9 v -18 c 3,0 7,0 10,0 4,-14 -7,-37 -10,-47 3,0 7,0 10,0 96,-48 -103,22 9,-9 0,-4 0,-6 0,-10 -1,-1 -15,-7 -19,-9 0,-3 3,-25 0,-28 0,-1 -15,8 -18,9 -10,-33 5,-5 -10,-18 v -19 c 27,-4 11,21 28,19 v -19 c 3,0 7,0 10,0 3,0 6,0 9,0 v -19 h -19 c -4,-12 0,-32 0,-46 -50,-28 -2,31 -18,-19 -30,-2 7,-26 9,-28 -3,2 0,24 0,28 3,0 6,0 9,0 5,-11 -5,-17 0,-28 h 19 c 5,-21 1,-30 9,-46 -29,0 -30,6 -46,9 v -19 c 7,-4 19,0 28,0 4,-17 -4,-10 9,-18 -8,-15 -5,-22 -9,-38 h -19 v -18 c 56,-16 -32,22 9,-10 3,0 7,0 10,0 v -18 c -4,0 -7,0 -10,0 -3,0 -6,0 -9,0 0,-5 2,-26 0,-28 7,-4 19,0 28,0 5,-18 -2,-10 9,-19 -6,-13 -2,-5 -9,-19 -3,0 -6,0 -9,0 v -18 c -4,0 -7,0 -10,0 -18,-14 18,-18 19,-19 -3,-10 0,-17 0,-28 -20,-10 -4,15 -9,-9 11,-6 10,7 9,-9 -12,1 -41,-31 9,-28 -6,-3 -4,-64 0,-66 -1,-1 -25,-15 -18,-18 3,0 6,0 9,0 6,-18 9,-28 9,-28 -8,-5 -13,-4 -9,-19 0,0 16,-8 19,-9 v -19 c -4,0 -7,0 -10,0 v -18 c -15,-7 -18,5 -28,9 -2,-18 0,-38 0,-56 -17,-9 -5,12 -9,-9 21,-11 10,-2 37,0 2,-21 -7,-55 0,-75 3,0 7,0 10,0 7,-14 5,-3 9,-19 -9,-6 -9,-4 -19,-9 2,-3 14,-17 10,-19 -21,-10 -3,14 -10,-9 8,-4 14,6 10,-9 -2,-6 -21,-7 -28,-10 0,-5 0,-21 0,-28 3,0 6,0 9,0 7,-39 0,-89 0,-130 3,0 6,0 9,0 0,0 -11,-18 -9,-37 3,0 6,0 9,0 0,-23 -4,-53 0,-75 3,0 7,0 10,0 1,-8 0,-19 0,-28 3,0 6,0 9,0 1,-14 2,-33 0,-46 -3,0 -6,0 -9,0 -5,-20 6,-21 -10,-28 0,-4 0,-7 0,-10 3,0 7,0 10,0 3,-13 10,-40 9,-46 0,0 -16,-4 -9,-19 3,0 6,0 9,0 2,-1 7,-17 9,-19 4,-3 17,-6 19,-9 11,-25 2,-44 9,-75 3,0 7,0 9,0 v -18 c 4,0 7,0 10,0 3,-14 -4,-33 0,-47 l 18,-9 c 3,-8 -2,-20 0,-28 4,0 7,0 10,0 v -19 c 3,0 6,0 9,0 5,-14 -5,-31 0,-46 3,0 6,0 9,0 14,-28 -18,4 10,-10 v -18 c 3,0 6,0 9,0 3,-8 -2,-20 0,-28 3,0 6,0 9,0 v -19 c 4,0 7,0 10,0 v -19 l 18,-9 c 6,-9 6,-34 10,-37 h 18 c 0,-3 0,-6 0,-9 16,-5 24,0 38,-10 v -18 c 1,-6 21,-5 28,-10 9,-7 5,-16 9,-28 3,0 6,0 9,0 5,-11 -2,-25 0,-37 3,0 7,0 10,0 4,-32 3,-46 9,-75 -22,5 -27,12 -56,10 2,-7 0,-21 0,-28 3,-2 18,-8 19,-10 0,0 -5,-23 -10,-9 0,-3 0,-6 0,-9 0,0 17,-9 19,-9 0,-4 0,-7 0,-10 h 19 v -18 c 3,0 6,0 9,0 0,-4 0,-7 0,-10 21,-11 25,-27 46,-37 0,-3 0,-6 0,-9 4,0 7,0 10,0 v -19 c 5,-5 21,3 28,0 v -19 l 28,-18 c 0,-4 0,-6 0,-10 h 18 c 4,4 10,38 10,38 11,10 37,2 56,9 0,0 8,17 9,19 h 19 v -19 c -4,0 -7,0 -10,0 l -9,-19 h -19 c -1,0 -7,-15 -9,-18 -3,0 -6,0 -9,0 v -19 c -4,0 -7,0 -10,0 -6,-17 -2,-16 -9,-28 28,-7 15,2 37,-9 z" class="fil1" id="61387928"></path>
    </g>
    <path id="61388104" class="fil2" d="m 13.52375,49.570137 c 0.330467,0.02542 0.127103,0.40673 0.177943,0.660936 h -0.330467 c 0,-0.05085 0,-0.101683 0,-0.152524 -0.254206,0.228785 -0.228785,-0.533832 0.152524,-0.508412 z" style="fill:#e60000;fill-opacity:1;stroke-width:0.0254206;image-rendering:optimizeQuality;shape-rendering:geometricPrecision;text-rendering:geometricPrecision"></path>
    <path id="61388192" class="fil2" d="m 12.862815,50.56154 c 0.584674,0.05085 0.45757,0.584673 0,0.508412 0,-0.05085 0,-0.101683 0,-0.152524 -0.330468,0 -0.203365,-0.355888 0,-0.355888 z" style="fill:#e60000;fill-opacity:1;stroke-width:0.0254206;image-rendering:optimizeQuality;shape-rendering:geometricPrecision;text-rendering:geometricPrecision"></path>
    <path id="61388280" class="fil2" d="m 11.566365,51.705466 c 0.355888,-0.05085 0.635515,0 1.016823,0 0,0.05084 0.152524,0.330468 0.152524,0.355889 0.381308,0.101682 -0.05084,0.228785 -0.152524,0.330467 0,0.05085 0,0.101683 0,0.152524 -0.533832,-0.101683 -0.711776,-0.101683 -1.169347,-0.152524 0.02542,-0.279626 -0.127102,-0.635514 0.152524,-0.686356 z" style="fill:#e60000;fill-opacity:1;stroke-width:0.0254206;image-rendering:optimizeQuality;shape-rendering:geometricPrecision;text-rendering:geometricPrecision"></path>
    <path id="61388368" class="fil2" d="m 12.354403,67.669593 c 0.330468,0 0.127103,0.279626 0.177944,0.508411 H 12.20188 c 0.05085,-0.228785 -0.152524,-0.508411 0.152523,-0.508411 z" style="fill:#e60000;fill-opacity:1;stroke-width:0.0254206;image-rendering:optimizeQuality;shape-rendering:geometricPrecision;text-rendering:geometricPrecision"></path>
    <path id="61388456" class="fil2" d="m 15.404873,47.48565 c 0,0 0.177944,0.330467 0.228785,0.45757 h -0.45757 c 0.05084,-0.228785 -0.152523,-0.559253 0.228785,-0.45757 z" style="fill:#e60000;fill-opacity:1;stroke-width:0.0254206;image-rendering:optimizeQuality;shape-rendering:geometricPrecision;text-rendering:geometricPrecision"></path>
    <path id="61388544" class="fil2" d="m 17.285997,45.807891 c 0.406728,0.07626 0.788038,0 1.194766,0 0,0.101683 0,0.177944 0,0.254206 0.279627,0.05084 0.457571,-0.127103 0.711777,0 l 0.711776,0.940562 c 0.203365,0.07626 0.559253,-0.101683 0.711777,0 l 0.228785,0.711776 c 0.228786,0.127103 0.45757,-0.07626 0.711776,0 0,0.07626 0,0.152523 0,0.228785 0.381309,0.127103 0.43215,0.101682 0.711776,0.254206 0,0.07626 0,0.152523 0,0.228785 0.203365,0.101683 0.508412,-0.07626 0.711777,0 l 0.254206,0.482991 c 0.406729,0.254206 0.508411,0 0.940562,0.228785 0,0 0.228785,0.457571 0.228785,0.457571 h 0.48299 c 0.05085,0.101682 0.203365,0.482991 0.228785,0.482991 h 0.482993 c 0,0.07626 0,0.177944 0,0.228785 h 0.45757 c 0.02542,0.02542 0.254206,0.482992 0.254206,0.482992 0.127103,0.07626 0.559253,0.152523 0.711776,0.228785 0,0.101682 0,0.177943 0,0.254206 0.07626,0 0.152524,0 0.228785,0 0.07626,0.203364 -0.101682,0.508411 0,0.711775 l 0.711777,0.457571 c 0.228785,0.482991 0.101682,0.635515 0.228785,1.194768 0.07626,0 0.177944,0 0.254206,0 0.05084,0.279626 -0.127104,0.43215 0,0.711776 0.07626,0 0.152524,0 0.228785,0 v 0.482991 c 0.07626,0 0.152523,0 0.228785,0 0.05084,0.203364 -0.07626,0.508412 0,0.711776 0.07626,0 0.177944,0 0.254206,0 0.152523,0.559254 0,0.381309 0.228786,0.940562 0.07626,0 0.152523,0 0.228785,0 0.07626,0.279626 -0.152524,0.686356 0,0.940562 0,0 0.686355,0.45757 0.711776,0.482991 0,0.07626 0,0.152523 0,0.228785 h 0.482991 c 0,0.07626 0,0.152523 0,0.228786 h 0.45757 c 0,0.101682 0,0.177943 0,0.254205 l 0.965983,0.711776 c 0.05085,0.177944 -0.127104,0.559254 0,0.711777 0.152523,0.203364 0.508411,0.05084 0.711776,0.228785 v 0.482991 c 0,0 0.686355,0.457571 0.711776,0.457571 0,0.07626 0,0.177943 0,0.254206 h 0.457571 c 0.152523,0.279626 0,1.067664 0,1.398131 0.101683,0.05085 0.45757,0.203365 0.482991,0.254206 0.05085,0.127103 -0.101682,0.610095 0,0.711777 0.127103,0.101681 0.711776,0.02542 0.940562,0.228785 v 0.482991 h -0.457571 c 0,0.07626 0,0.152524 0,0.228785 v 0.482992 h -0.482991 c -0.177945,0.381308 -0.05085,1.245608 -0.228786,1.652337 -0.05085,0.101683 -0.381308,0.177944 -0.482991,0.228785 v 0.482992 c -0.07626,0 -0.152523,0 -0.228785,0 -0.05085,0.177944 0.07626,0.559252 0,0.711776 l -0.711776,0.228785 v 0.482992 c -0.02542,0.02542 -0.45757,0.203363 -0.482991,0.228785 0,0.07626 0,0.177943 0,0.228784 -0.177944,0.127104 -0.584674,0.07626 -0.711776,0.254206 v 0.457571 c -0.07626,0 -0.152524,0 -0.228786,0 v 0.482991 c -0.07626,0 -0.152524,0 -0.254206,0 -0.177944,0.508412 -0.05084,0.711777 -0.228785,1.194768 -0.533832,-0.05084 -0.533832,0.330467 -1.169346,0.228785 0,-0.07626 0,-0.152524 0,-0.228785 h -0.482991 c -0.02542,-0.02542 0,-0.330469 -0.482992,-0.254206 0,0.101682 0,0.177944 0,0.254206 h -0.45757 c 0,0.07626 0,0.152523 0,0.228785 -0.228786,0.101682 -0.711777,0.711777 -0.711777,0.711777 -0.305047,0.127102 -0.686356,0.254204 -0.965982,0.228784 0,-0.07626 0,-0.152523 0,-0.228784 -0.177943,0 -0.533832,-0.07626 -0.711776,0 -0.711776,0.254204 0.788038,0.381308 -0.228785,0.228784 0,-0.07626 0,-0.152523 0,-0.228784 -0.279626,0 -0.43215,0.05084 -0.711778,0 0,-0.07626 0,-0.152524 0,-0.228786 -0.279626,-0.07626 -0.432149,0.101682 -0.711775,0 0,0 -0.228785,-0.482991 -0.228785,-0.482991 -0.432151,-0.203365 -0.533833,-0.02542 -0.940562,-0.228785 0,-0.101683 0,-0.152524 0,-0.254206 -0.711777,-0.177944 -0.482991,0.482991 -0.482991,0.482991 -0.305047,0.05084 -0.482992,-0.482991 -0.482992,-0.482991 -0.203365,-0.07626 -0.508411,0.101682 -0.711776,0 -0.05085,-0.02542 -0.152523,-0.43215 -0.228786,-0.457571 h -0.48299 c 0,-0.07626 0,-0.152524 0,-0.254206 -0.07627,0 -0.152524,0 -0.228785,0 0,-0.07626 0,-0.152524 0,-0.228785 -0.203365,-0.07626 -0.508412,0.101683 -0.711777,0 v -0.482991 c -0.482991,-0.177944 -1.169347,0.127103 -1.652338,0 L 17.997772,69.75408 c -0.203364,-0.07626 -0.48299,0.07626 -0.711775,0 l -0.457571,-0.711775 c -0.457571,-0.228786 -1.042244,0.02542 -1.423553,-0.228786 v -0.482991 h -0.482991 c 0,-0.07626 0,-0.152524 0,-0.228785 -0.254206,-0.07626 -0.737197,0.152524 -0.940561,0 0,-0.101683 0,-0.177945 0,-0.254206 -0.40673,-0.203365 -0.07626,-0.279626 -0.228786,-0.711777 l -0.482991,-0.228785 v -0.482991 c -0.07626,0 -0.152524,0 -0.228785,0 0,-0.07626 0,-0.152523 0,-0.228786 -0.152524,0 -0.610094,0.07627 -0.711777,0 0,-0.07626 0,-0.152522 0,-0.228785 0.330468,0.610095 0,-0.711775 0,-0.711775 h -0.482991 c -0.101682,-0.203365 0.07626,-0.508412 0,-0.711777 -0.07626,0 -0.152523,0 -0.228785,0 -0.127103,-0.07626 -0.177944,-0.635515 -0.254206,-0.711776 -0.02542,-0.05085 -0.355888,-0.203365 -0.45757,-0.254206 0,-0.07626 0,-0.152523 0,-0.228786 -0.07627,0 -0.152524,0 -0.254206,0 V 62.865102 C 10.498701,62.738 10.06655,62.814257 9.9648688,62.636317 c -0.1271034,-0.177944 0.050845,-0.508412 0,-0.711776 -0.025422,-0.02542 -0.3813092,-0.177944 -0.4829911,-0.228785 V 61.212765 L 8.7701011,60.983979 c -0.1271024,-0.254205 0.1271035,-0.711776 0,-0.940561 0.2287854,-0.203365 0.4321503,-0.07626 0.7117766,-0.254206 0.076257,-0.05085 0.2287853,-0.330468 0.4829911,-0.457571 -0.076257,-0.05084 0,-0.88972 -0.4829911,-0.48299 C 9.4564552,58.797806 9.2530923,58.39108 9.2530923,58.36566 H 8.7701011 c 0.1271035,-0.40673 0.2287854,-0.711777 0.2287854,-0.711777 0.3050468,-0.07626 0.4321502,0.07626 0.7117765,0 0,-0.07626 0,-0.152524 0,-0.228785 0.838879,-0.127104 1.067664,-0.07626 1.906543,-0.228786 0,-0.07626 0,-0.152524 0,-0.254205 0.254206,-0.05085 0.457571,0.127103 0.711776,0 0,-0.07626 0,-0.152524 0,-0.228786 1.042244,-0.228785 0.228786,-0.228785 0.228786,-0.228785 v -0.482991 h 0.482991 c 0,-0.07626 0,-0.152523 0,-0.228786 0.635514,0.127104 0.737197,0.203365 1.423553,0.228786 0.101682,-0.228786 0,-0.686355 0,-0.940561 0.432149,-0.228786 0.127102,0.305047 0.228784,-0.228786 h 0.482992 c 0.152523,-0.127103 -0.482992,-0.355888 -0.254206,-0.711776 h 0.482991 c 0.355889,-0.660936 -0.457571,0.101682 0.228785,-0.254206 0,-0.07626 -0.05085,-0.610095 0,-0.711776 l 0.711777,-0.228786 c 0.101682,-0.610093 -0.152524,-0.305047 -0.457571,-0.482991 0,-0.508412 0.07626,-1.143926 0,-1.652337 0.02542,-0.02542 0.660936,0 0.711777,0 v -0.482992 h 0.45757 c 0.152523,-0.406729 0.152523,-1.32187 0.228786,-1.652338 h 0.48299 c -0.02542,0.07626 -0.228785,1.194768 -0.228785,1.194768 0.43215,-0.07626 0.965982,0 1.423553,0 0,-0.07626 0,-0.152524 0,-0.254206 0,-0.07626 0,-0.152524 0,-0.228785 -0.406729,-0.101682 -0.584674,-0.533833 -0.965983,-0.711777 0,-0.07626 0,-0.152523 0,-0.228785 h -0.45757 c 0,-0.07626 0,-0.152523 0,-0.228785 -0.330468,0.152523 -0.915141,0.02542 -1.194767,0.228785 -0.279627,0.203365 0.254206,0.482991 0.254206,0.482991 -0.05084,0 0,0.635515 0,0.686356 -0.711777,0 -0.686356,-0.228785 -0.965983,-0.228785 0,0.07626 0,0.177944 0,0.228785 -0.127102,0 -0.533832,0 -0.711776,0 -0.07626,-0.127103 -0.43215,-0.915142 -0.45757,-0.940562 0.48299,-0.177943 0.45757,-0.101682 1.169346,-0.228785 0,-0.07626 0,-0.152523 0,-0.228785 0,0 0.381309,-0.203365 0.482991,-0.254206 0,-0.254205 -0.152523,-0.940561 0,-1.169347 h 0.482992 c -0.127104,0.40673 0,0.101682 0.228785,0.228786 0,0 0.610094,-1.118507 0,-0.711777 0,-0.07626 0,-0.152523 0,-0.228785 0.02542,-0.02542 0.457571,-0.228786 0.457571,-0.254206 z" style="fill:#e60000;fill-opacity:1;stroke-width:0.0254206;image-rendering:optimizeQuality;shape-rendering:geometricPrecision;text-rendering:geometricPrecision"></path>
    <g id="g43" style="fill:#007f00;fill-opacity:1;image-rendering:optimizeQuality;shape-rendering:geometricPrecision;text-rendering:geometricPrecision" transform="matrix(0.02542058,0,0,0.02542058,63.398934,0)">
      <path style="fill:#007f00;fill-opacity:1" d="m 90,2257 c 12,0 4,11 6,20 H 83 c 2,-9 -5,-20 7,-20 z" class="fil3" id="61388720"></path>
      <path style="fill:#007f00;fill-opacity:1" d="m 96,2832 c 20,-9 11,17 13,26 -2,0 -4,0 -6,0 -1,2 -6,13 -7,14 -17,8 -17,-18 -6,-14 0,-2 -2,-25 0,-26 2,0 4,0 6,0 z" class="fil3" id="61388808"></path>
      <path style="fill:#007f00;fill-opacity:1" d="m 90,2878 c 23,-19 -5,44 -7,46 -9,8 -5,-6 -6,-7 -4,12 -7,-6 -7,-6 l 13,-7 c 2,-6 0,-20 0,-26 2,0 5,0 7,0 z" class="fil3" id="61388896"></path>
      <path style="fill:#007f00;fill-opacity:1" d="m 194,2885 c 0,2 0,4 0,6 12,0 8,10 0,7 0,2 0,4 0,6 -10,-1 -10,-19 0,-19 z" class="fil3" id="61388984"></path>
      <path style="fill:#007f00;fill-opacity:1" d="m 233,2885 c 26,0 2,9 14,19 -6,0 -15,-1 -20,0 0,-2 0,-4 0,-6 -12,8 -5,-14 6,-13 z" class="fil3" id="61389072"></path>
      <path style="fill:#007f00;fill-opacity:1" d="m 83,2943 c 12,-3 8,7 0,7 0,2 0,4 0,6 -12,3 -7,-11 0,-13 z" class="fil3" id="61389160"></path>
      <path style="fill:#007f00;fill-opacity:1" d="m 149,3041 c -18,7 6,7 6,7 -1,2 -5,12 -6,13 -13,4 -20,-9 -7,-7 3,-10 -5,-10 7,-13 z" class="fil3" id="61389248"></path>
      <path style="fill:#007f00;fill-opacity:1" d="m 188,3041 c 0,3 0,5 0,7 v 13 c -2,0 -4,0 -7,0 0,-2 0,-4 0,-7 -13,9 -4,-13 7,-13 z" class="fil3" id="61389336"></path>
      <path style="fill:#007f00;fill-opacity:1" d="m -67,3250 c 54,0 -7,13 -7,14 3,-9 -6,-14 7,-14 z" class="fil3" id="61389424"></path>
      <path style="fill:#007f00;fill-opacity:1" d="m 24,3283 c 12,0 6,22 7,33 H 18 c -5,-2 -10,-27 0,-20 2,-9 -7,-13 6,-13 z" class="fil3" id="61389512"></path>
      <path style="fill:#007f00;fill-opacity:1" d="m 57,3309 c 1,14 -3,2 7,7 0,22 0,43 0,65 -5,0 -23,-3 -26,0 v -13 c -1,-1 -12,-5 -14,-6 v -14 l 20,-6 c 2,-6 0,-20 0,-26 2,-1 13,-5 13,-7 z" class="fil3" id="61389600"></path>
      <path style="fill:#007f00;fill-opacity:1" d="m -119,3616 c 9,5 -7,13 -7,13 1,-4 -4,-18 7,-13 z" class="fil3" id="61389688"></path>
      <path style="fill:#007f00;fill-opacity:1" d="m -21,3649 c 30,0 -16,-4 6,7 -6,-2 -25,-7 -6,-7 z" class="fil3" id="61389776"></path>
      <path style="fill:#007f00;fill-opacity:1" d="m 136,3669 c 11,-3 5,18 6,26 -11,3 -10,-5 -13,6 -14,0 -8,-2 -13,-6 -20,-15 2,-16 13,-20 52,-18 -54,4 7,-6 z" class="fil3" id="61389864"></path>
      <path style="fill:#007f00;fill-opacity:1" d="m -132,3701 c 11,0 5,17 6,26 h -13 c 1,-9 -5,-26 7,-26 z" class="fil3" id="61389952"></path>
      <path style="fill:#007f00;fill-opacity:1" d="m -28,3734 c 0,2 0,4 0,6 11,6 3,7 7,20 -3,-2 -11,5 -13,7 0,-3 0,-5 0,-7 -5,20 -5,-11 -7,-20 2,0 5,0 7,0 6,-5 -9,-10 6,-6 z" class="fil3" id="61390040"></path>
      <path style="fill:#007f00;fill-opacity:1" d="m -47,3780 c 22,2 24,19 0,19 v -13 c -10,0 -10,-7 0,-6 z" class="fil3" id="61390128"></path>
      <path style="fill:#007f00;fill-opacity:1" d="m 51,3793 c 25,-5 25,17 13,13 -4,11 -3,18 -7,19 0,0 -12,-6 -13,-6 1,-12 -6,-24 7,-26 z" class="fil3" id="61390216"></path>
      <path style="fill:#007f00;fill-opacity:1;stroke:#ffffff;stroke-width:14" d="m 31,3839 c 0,2 0,4 0,6 14,-4 12,-4 26,-6" class="fil4 str0" id="61390304"></path>
      <path style="fill:#007f00;fill-opacity:1;stroke:#ffffff;stroke-width:14" d="m 57,3839 v 13" class="fil4 str0" id="61390392"></path>
      <path style="fill:#007f00;fill-opacity:1;stroke:#ffffff;stroke-width:14" d="m 57,3852 c -5,0 -15,-2 -19,0 1,12 2,3 13,6 -5,26 -3,34 -7,59 9,5 15,-5 20,-7 0,3 0,5 0,7 2,0 4,0 6,0 1,7 0,19 0,26 14,7 0,-10 7,7 -9,5 -12,2 -26,6 -2,12 2,2 -7,7" class="fil4 str0" id="61390480"></path>
      <path style="fill:#007f00;fill-opacity:1;stroke:#ffffff;stroke-width:14" d="m 44,3963 v 13" class="fil4 str0" id="61390568"></path>
      <path style="fill:#007f00;fill-opacity:1;stroke:#ffffff;stroke-width:14" d="m 44,3976 c 2,0 5,0 7,0 -4,10 -4,5 -7,19 -9,0 -25,-3 -33,0 4,-15 2,-11 7,-26 2,0 4,0 6,0 1,-4 0,-16 0,-19 -2,0 -4,0 -6,0 -4,-22 0,-51 0,-72" class="fil4 str0" id="61390656"></path>
      <path style="fill:#007f00;fill-opacity:1;stroke:#ffffff;stroke-width:14" d="M 18,3878 H 31" class="fil4 str0" id="61390744"></path>
      <path style="fill:#007f00;fill-opacity:1;stroke:#ffffff;stroke-width:14" d="m 31,3878 c 3,-10 -3,-32 -7,-20 -3,-2 6,-14 -6,-6 0,0 11,-25 13,-13" class="fil4 str0" id="61390832"></path>
      <path style="fill:#007f00;fill-opacity:1" d="m -87,3852 c 4,-1 16,0 20,0 -2,9 -3,4 -7,13 -2,0 -4,0 -6,0 -5,15 3,36 0,52 -2,0 -4,0 -7,0 0,4 1,15 0,19 7,4 7,-5 7,7 -2,0 -4,0 -7,0 0,12 1,21 0,33 -4,0 -23,-3 -26,0 0,2 0,4 0,6 14,4 13,1 26,7 -1,11 0,21 0,32 -2,0 -4,0 -6,0 -2,15 5,33 0,46 l -13,7 c -3,7 2,11 0,19 2,0 4,0 6,0 -1,4 0,16 0,20 -7,4 -6,-6 -6,6 0,3 0,5 0,7 4,1 22,1 26,0 v -13 c 7,0 19,2 26,0 0,2 0,4 0,6 -12,4 -11,2 -20,7 l 14,20 c 14,4 19,-7 19,-7 4,-1 16,1 20,0 0,0 10,13 -20,13 v 13 c 2,0 5,0 7,0 -4,12 1,4 6,7 v 13 c -2,1 -12,5 -13,6 v 13 c 8,5 8,3 20,7 -1,2 3,28 -7,20 -4,2 6,13 -6,6 0,7 2,20 0,26 h -13 c -4,-13 3,-6 -7,-13 0,0 4,-52 7,-33 -5,-7 -18,-9 -20,-13 -4,-6 -5,-42 -7,-52 -1,0 -19,0 -19,0 -5,12 -1,3 -13,7 -2,22 -3,26 -7,45 2,0 5,0 7,0 0,9 -4,25 0,33 l 19,7 c 0,0 5,21 7,26 2,0 4,0 6,0 v 13 c 3,0 5,0 7,0 l -7,19 c -4,0 -15,-2 -19,0 -8,-7 -2,-16 0,-32 0,0 -19,0 -20,0 -2,6 0,19 0,26 -1,0 -13,6 -13,6 0,0 3,19 7,7 0,0 4,18 6,6 0,7 -2,20 0,27 -7,-4 -12,2 -19,0 -2,-1 -6,-13 -7,-14 -4,-2 -22,-4 -26,-6 2,-6 -1,-14 0,-20 2,0 4,0 6,0 1,-4 -1,-15 0,-19 3,0 5,0 7,0 0,-6 1,-15 0,-20 0,0 -7,-1 -7,-13 3,0 5,0 7,0 0,-7 1,-19 0,-26 -2,0 -4,0 -7,0 0,-4 1,-16 0,-20 7,-4 6,-3 14,-6 0,-2 0,-4 0,-7 3,2 8,8 13,7 -1,-4 0,-16 0,-20 -3,0 -5,0 -7,0 -4,-19 6,-47 0,-65 -2,0 -4,0 -6,0 0,-2 0,-4 0,-7 h -14 c -2,-8 -3,-20 -6,-26 l -13,-6 v -13 h 13 c 4,7 3,5 6,13 3,0 5,0 7,0 v 13 h 13 c 0,-26 0,-53 0,-79 4,-2 25,-11 26,-13 0,-2 0,-4 0,-6 -4,0 -16,0 -19,0 2,-2 0,-23 0,-26 h 13 c 0,-3 0,-5 0,-7 h -13 c 0,-7 1,-20 0,-26 2,0 4,0 6,0 v -13 c 2,0 5,0 7,0 1,-13 -1,-4 -7,-7 v -13 c 2,0 5,0 7,0 3,-12 -2,-26 0,-39 6,0 19,2 26,0 44,-15 -46,2 6,-6 z" class="fil3" id="61390920"></path>
      <path style="fill:#007f00;fill-opacity:1" d="m -21,3943 c 53,0 -7,13 -7,13 2,-9 -6,-13 7,-13 z" class="fil3" id="61391008"></path>
      <path style="fill:#007f00;fill-opacity:1" d="m 64,3969 c 16,-4 0,20 0,20 -13,2 -7,-18 0,-20 z" class="fil3" id="61391096"></path>
      <path style="fill:#007f00;fill-opacity:1" d="m -159,3982 c 47,0 -6,13 -6,13 2,-9 -6,-13 6,-13 z" class="fil3" id="61391184"></path>
      <path style="fill:#007f00;fill-opacity:1" d="m -60,4015 c 22,2 18,22 0,19 0,-2 0,-4 0,-6 -13,0 -8,-14 0,-13 z" class="fil3" id="61391272"></path>
      <path style="fill:#007f00;fill-opacity:1" d="m -28,4015 c 13,1 5,9 7,19 h -13 c 0,-2 0,-4 0,-6 -12,8 -6,-14 6,-13 z" class="fil3" id="61391360"></path>
      <path style="fill:#007f00;fill-opacity:1" d="m -67,4041 c 2,0 4,0 7,0 4,17 1,18 6,33 h 13 c 7,-4 -3,-11 20,-13 -2,17 0,34 0,52 -7,-2 -20,0 -26,0 v -13 c 0,0 20,0 6,-7 -20,-10 -11,-1 -33,0 -1,-28 -12,-38 7,-52 z" class="fil3" id="61391448"></path>
      <path style="fill:#007f00;fill-opacity:1" d="m -2,4106 c 12,0 6,17 7,26 H -8 c 1,-9 -6,-26 6,-26 z" class="fil3" id="61391536"></path>
      <path style="fill:#007f00;fill-opacity:1" d="m -165,4119 c -5,3 6,27 6,27 -2,0 -4,0 -6,0 0,2 0,4 0,6 -21,13 -13,-29 0,-33 z" class="fil3" id="61391624"></path>
      <path style="fill:#007f00;fill-opacity:1" d="m 24,4119 c 57,0 -6,13 -6,13 2,-9 -6,-13 6,-13 z" class="fil3" id="61391712"></path>
      <path style="fill:#007f00;fill-opacity:1" d="m 83,4126 c 41,0 -6,13 -6,13 2,-9 -7,-13 6,-13 z" class="fil3" id="61391800"></path>
      <path style="fill:#007f00;fill-opacity:1" d="m 18,4146 c 13,-7 1,31 0,39 -2,0 -4,0 -7,0 0,2 0,4 0,6 H -2 c 4,-12 -2,-4 -6,-6 10,-20 5,-30 26,-39 z" class="fil3" id="61391888"></path>
      <path style="fill:#007f00;fill-opacity:1" d="m 5,4204 c 20,3 14,35 0,33 0,-2 0,-4 0,-6 -18,0 -15,-29 0,-27 z" class="fil3" id="61391976"></path>
      <path style="fill:#007f00;fill-opacity:1" d="m -74,4237 c 10,5 -6,13 -6,13 1,-5 -4,-18 6,-13 z" class="fil3" id="61392064"></path>
      <path style="fill:#007f00;fill-opacity:1" d="m -47,4276 c 6,16 -8,0 6,7 0,7 -1,19 0,26 13,-6 2,3 7,6 2,0 4,0 6,0 0,0 -6,12 -6,13 -6,0 -15,-1 -20,0 l -6,-32 c 2,0 4,0 6,0 0,-4 -1,-16 0,-20 2,0 5,0 7,0 z" class="fil3" id="61392152"></path>
      <path style="fill:#007f00;fill-opacity:1" d="m -87,4309 c 20,-2 25,19 13,13 0,2 0,4 0,6 -3,-2 -15,0 -19,0 1,-10 -7,-18 6,-19 z" class="fil3" id="61392240"></path>
      <path style="fill:#007f00;fill-opacity:1" d="m -21,4328 13,20 c 5,3 20,0 26,0 v 13 c -2,1 -13,7 -13,7 -4,12 4,27 0,39 -1,2 -13,5 -13,6 1,0 -6,-12 -7,-13 -3,12 -6,-13 -6,-13 21,10 11,-22 13,-32 -5,-2 -15,0 -20,0 v -13 c -2,0 -4,0 -6,0 2,-2 -5,-16 6,-7 10,-5 -12,-11 7,-7 z" class="fil3" id="61392328"></path>
      <path style="fill:#007f00;fill-opacity:1" d="m -54,4335 c 10,5 -6,13 -6,13 1,-4 -5,-19 6,-13 z" class="fil3" id="61392416"></path>
      <path style="fill:#007f00;fill-opacity:1" d="m -41,4387 c 7,2 12,16 0,13 0,-2 0,-4 0,-6 -8,0 -12,-10 0,-7 z" class="fil3" id="61392504"></path>
      <path style="fill:#007f00;fill-opacity:1" d="m -54,4394 v 13 c -22,5 -9,-11 0,-13 z" class="fil3" id="61392592"></path>
      <path style="fill:#007f00;fill-opacity:1" d="m -15,4433 c 36,-2 1,10 20,20 0,2 0,4 0,6 5,2 16,-3 19,0 4,3 -4,23 0,26 -21,0 -22,-11 -39,-6 -2,0 4,7 -13,6 4,-13 9,-26 7,-26 h 13 c 0,-2 0,-4 0,-6 h -13 c 1,-10 -6,-19 6,-20 z" class="fil3" id="61392680"></path>
      <path style="fill:#007f00;fill-opacity:1" d="m -67,4453 c 14,4 12,2 26,6 -3,11 7,33 -13,26 l -13,-19 c -2,0 -4,0 -7,0 v -13 c 3,0 5,0 7,0 z" class="fil3" id="61392768"></path>
      <path style="fill:#007f00;fill-opacity:1" d="m 318,4498 c 30,-1 4,8 14,13 -5,-1 -15,0 -20,0 2,-9 -7,-12 6,-13 z" class="fil3" id="61392856"></path>
      <path style="fill:#007f00;fill-opacity:1" d="m -54,4505 c -1,11 0,3 7,6 0,10 -2,24 0,33 -19,-4 2,3 -7,7 -6,2 -14,-2 -20,0 6,-4 5,-29 0,-33 z" class="fil3" id="60589552"></path>
      <path style="fill:#007f00;fill-opacity:1" d="m -15,4505 h 13 c 0,2 -1,18 0,20 3,1 19,-2 20,0 5,11 -4,26 0,39 -2,0 -13,6 -13,6 0,0 -13,-19 -13,-19 h -13 v -13 c -5,-3 -10,4 -13,6 0,-2 0,-4 0,-6 -3,0 -5,0 -7,0 0,-2 1,-19 0,-20 h 13 c 1,-1 5,-11 7,-13 2,0 4,0 6,0 z" class="fil3" id="60589640"></path>
      <path style="fill:#007f00;fill-opacity:1" d="m -60,4583 c 0,3 0,5 0,7 7,-3 19,7 -7,13 0,-2 0,-4 0,-7 -12,9 -4,-15 7,-13 z" class="fil3" id="60589728"></path>
      <path style="fill:#007f00;fill-opacity:1" d="m -60,4609 c 22,-3 11,23 6,20 0,2 0,5 0,7 h -13 c -1,-1 -6,-11 -7,-14 3,0 5,0 7,0 3,-10 -7,-11 7,-13 z" class="fil3" id="60589816"></path>
      <path style="fill:#007f00;fill-opacity:1" d="m -21,4675 c 12,0 4,10 6,19 h -13 c 2,-9 -6,-19 7,-19 z" class="fil3" id="60589904"></path>
      <path style="fill:#007f00;fill-opacity:1" d="m -21,4714 c 12,-1 5,11 6,20 -47,-1 -15,-10 -26,-13 h 13 c 20,-7 -20,-5 7,-7 z" class="fil3" id="60589992"></path>
      <path style="fill:#007f00;fill-opacity:1" d="m -2,4727 c 52,0 -6,13 -6,13 2,-9 -7,-13 6,-13 z" class="fil3" id="60590080"></path>
      <path style="fill:#007f00;fill-opacity:1" d="m -152,5348 c 14,2 9,3 20,6 0,3 0,5 0,7 -3,0 -5,0 -7,0 -5,4 8,11 -6,6 0,3 0,5 0,7 2,0 4,0 6,0 4,15 -5,0 7,6 0,4 -1,16 0,20 h -13 c -5,-9 -3,-8 -7,-20 -2,0 -4,0 -7,0 -1,-3 5,-48 7,-32 z" class="fil3" id="60590168"></path>
      <path style="fill:#007f00;fill-opacity:1" d="m -139,5407 c 10,-8 6,27 7,32 h -13 c 0,0 -15,-38 0,-26 5,-3 -8,-13 6,-6 z" class="fil3" id="60590256"></path>
      <path style="fill:#007f00;fill-opacity:1" d="m -80,5439 c -1,0 0,24 0,26 -31,13 -18,-19 0,-26 z" class="fil3" id="60590344"></path>
      <path style="fill:#007f00;fill-opacity:1" d="m -152,5544 c 8,-1 18,0 26,0 -14,7 16,10 -6,6 0,3 0,5 0,7 -5,-2 -16,0 -20,0 -1,-2 -7,-13 -7,-13 3,0 5,0 7,0 z" class="fil3" id="60590432"></path>
      <path style="fill:#007f00;fill-opacity:1" d="m -171,5192 c 14,7 -9,18 -9,18 1,-5 -5,-25 9,-18 z" class="fil3" id="60590520"></path>
      <path style="fill:#007f00;fill-opacity:1" d="m -180,5136 c 13,7 -10,19 -10,19 2,-6 -4,-26 10,-19 z" class="fil3" id="60590608"></path>
      <path style="fill:#007f00;fill-opacity:1" d="m 165,4838 c 28,-7 0,18 0,18 -26,9 -16,-15 0,-18 z" class="fil3" id="60590696"></path>
      <path style="fill:#007f00;fill-opacity:1" d="m 211,4791 c -3,21 0,44 0,65 -11,-6 -10,8 -9,-9 -7,34 -9,-28 -9,-28 3,0 6,0 9,0 1,-5 0,-22 0,-28 3,0 6,0 9,0 z" class="fil3" id="60590784"></path>
      <path style="fill:#007f00;fill-opacity:1" d="m 165,4754 c 0,0 23,54 0,37 v -19 c -21,0 -6,-23 0,-18 z" class="fil3" id="60590872"></path>
      <path style="fill:#007f00;fill-opacity:1" d="m -22,4633 c 18,5 33,46 0,37 v -19 c -37,9 -8,-21 0,-18 z" class="fil3" id="60590960"></path>
      <path style="fill:#007f00;fill-opacity:1" d="m -199,4446 c -6,4 6,33 0,37 -21,18 -15,-30 0,-37 z" class="fil3" id="60591048"></path>
      <path style="fill:#007f00;fill-opacity:1" d="m -106,4390 c 6,36 4,56 10,93 -4,0 -6,0 -10,0 2,29 -3,56 0,84 4,0 7,0 10,0 0,19 0,38 0,56 -4,0 -6,0 -10,0 0,59 0,119 0,177 h 19 l 9,-18 h 19 c 0,-3 0,-6 0,-10 3,0 6,0 9,0 -3,11 3,17 0,28 -3,0 -6,0 -9,0 v 19 c -3,0 -6,0 -9,0 -1,2 9,56 9,56 -22,11 -1,35 0,47 -20,0 -9,63 0,55 0,4 0,7 0,10 -3,0 -6,0 -9,0 0,40 0,81 0,121 -14,7 -4,6 -19,9 0,3 0,7 0,10 3,0 6,0 9,0 4,0 7,0 10,0 0,2 -2,26 0,28 -23,11 -1,34 0,46 -20,0 -9,63 0,56 0,3 0,6 0,9 -4,0 -6,0 -10,0 0,40 0,83 0,122 4,0 7,0 10,0 0,3 0,6 0,9 -17,8 -5,34 -10,37 -8,4 -28,0 -37,0 -1,-25 22,-22 9,-28 -3,0 -6,0 -9,0 -2,-25 8,-56 -9,-65 0,-3 0,-6 0,-9 3,0 6,0 9,0 0,-16 4,-32 0,-47 -3,0 -6,0 -9,0 v -19 c 3,0 6,0 9,0 0,-16 3,-31 0,-46 l -19,-10 c -4,-11 2,-25 0,-37 -3,0 -6,0 -9,0 0,-4 1,-22 0,-28 21,6 25,-17 28,-18 -3,0 -6,0 -9,0 0,-4 0,-7 0,-10 -5,-2 -14,-6 -19,-9 13,-6 -25,-9 -28,-9 14,10 -15,45 -9,18 -3,0 -6,0 -10,0 0,-21 3,-45 0,-65 18,4 7,-9 10,-19 h 18 c -1,1 0,25 0,28 4,0 7,0 10,0 0,-3 0,-6 0,-9 3,0 6,0 9,0 v -19 c 3,0 6,0 9,0 v -18 c -11,-3 -17,3 -28,0 -21,-8 24,-17 -9,-10 -19,4 22,12 -9,10 -4,-22 8,-1 -10,-10 0,-18 3,-38 0,-56 -3,0 -6,0 -9,0 -1,-17 -2,-3 9,-9 1,-14 2,-13 -9,-18 0,-4 0,-7 0,-10 3,0 7,0 9,0 0,-18 -1,-38 0,-56 -3,0 -6,0 -9,0 5,-31 7,-47 9,-74 h -18 c 3,-15 17,-16 18,-19 15,-42 -4,-104 0,-149 4,0 7,0 10,0 0,-17 4,-40 0,-56 -3,0 -6,0 -10,0 v -19 c 4,0 7,0 10,0 0,-24 7,-61 0,-84 0,0 -17,-10 -19,-18 15,12 1,-16 19,-10 v 19 c 6,-1 23,15 28,19 10,-24 -14,2 9,-10 0,-9 -4,-29 0,-37 h 19 v -18 c 2,-2 18,-9 18,-10 z" class="fil3" id="60591136"></path>
      <path style="fill:#007f00;fill-opacity:1" d="m -143,4390 c 25,-6 0,28 0,28 -17,3 -11,-25 0,-28 z" class="fil3" id="60591224"></path>
      <path style="fill:#007f00;fill-opacity:1" d="m -162,4381 c -3,11 3,16 0,28 -3,0 -6,0 -9,0 v 18 c -3,0 -6,0 -9,0 0,-11 -4,-27 0,-37 z" class="fil3" id="60591312"></path>
      <path style="fill:#007f00;fill-opacity:1" d="m 99,3859 c 13,6 -9,19 -9,19 2,-6 -5,-26 9,-19 z" class="fil3" id="60591400"></path>
      <path style="fill:#007f00;fill-opacity:1" d="m -22,3831 c 0,3 0,6 0,9 13,-10 8,22 10,28 -27,4 -21,5 -38,10 0,3 0,6 0,9 -3,0 -6,0 -9,0 0,-4 -2,-24 0,-28 h 19 v -19 c 4,-2 17,-7 18,-9 z" class="fil3" id="60591488"></path>
      <path style="fill:#007f00;fill-opacity:1" d="m 44,3812 c 13,7 -10,19 -10,19 2,-6 -4,-26 10,-19 z" class="fil3" id="60591576"></path>
      <path style="fill:#007f00;fill-opacity:1" d="m -12,3784 c -8,3 8,36 9,38 -2,-2 -15,7 -19,9 1,-10 -4,-54 10,-47 z" class="fil3" id="60591664"></path>
      <path style="fill:#007f00;fill-opacity:1" d="m 16,3719 c 0,1 27,0 28,0 0,3 -1,27 0,28 3,0 6,0 9,0 0,0 -4,12 -9,28 -4,0 -7,0 -10,0 v -19 c -4,0 -23,2 -28,0 7,31 -10,9 -18,10 0,-13 3,-26 0,-38 10,-3 26,-4 28,-9 z" class="fil3" id="60591752"></path>
      <path style="fill:#007f00;fill-opacity:1" d="m -31,3700 c 40,-1 6,12 19,19 -9,-3 -19,0 -28,0 3,-12 -8,-18 9,-19 z" class="fil3" id="60591840"></path>
      <path style="fill:#007f00;fill-opacity:1" d="m 53,3654 c 0,3 0,6 0,9 16,8 5,17 9,37 H 44 c 0,0 -19,-53 0,-37 3,-2 -6,-17 9,-9 z" class="fil3" id="60591928"></path>
      <path style="fill:#007f00;fill-opacity:1" d="m 165,3505 c 24,3 10,1 37,9 0,3 0,6 0,9 -13,0 -26,4 -37,0 0,-3 0,-6 0,-9 -17,0 -11,-11 0,-9 z" class="fil3" id="60592016"></path>
      <path style="fill:#007f00;fill-opacity:1" d="m -50,3467 c -4,20 -4,24 -9,47 -3,0 -6,0 -9,0 0,3 0,6 0,9 3,0 6,0 9,0 v 19 c -3,0 -6,0 -9,0 -3,17 -1,13 9,19 0,3 0,6 0,9 -19,9 -6,59 -9,84 -4,0 -6,0 -10,0 0,14 2,23 0,37 -3,0 -6,0 -9,0 -1,7 0,23 0,28 3,0 6,0 9,0 3,17 1,39 0,56 -3,0 -6,0 -9,0 0,26 1,49 0,75 -12,0 -37,-7 -47,0 2,-22 -6,-2 10,-10 0,-29 -2,-54 0,-84 1,-1 18,-9 18,-9 2,-17 2,-4 -9,-9 0,-11 2,-18 0,-28 -3,0 -6,0 -9,0 0,-3 0,-6 0,-10 19,-4 4,-19 9,-37 3,0 6,0 9,0 1,-5 0,-22 0,-28 4,0 7,0 10,0 3,-15 2,-41 0,-56 -4,0 -6,0 -10,0 0,-11 -1,-17 0,-28 4,0 7,0 10,0 1,-11 0,-17 0,-28 3,0 6,0 9,0 2,-14 0,-23 0,-37 -12,-6 -10,8 -9,-9 13,-3 23,4 37,0 0,-4 0,-6 0,-10 3,0 6,0 9,0 z" class="fil3" id="60592104"></path>
      <path style="fill:#007f00;fill-opacity:1" d="m 81,3365 c 34,20 11,39 9,74 -3,0 -6,0 -9,0 -3,15 0,14 9,19 13,7 -19,19 -19,19 2,3 10,28 10,28 H 62 c -1,5 0,23 0,28 -14,-9 -15,21 -18,28 18,7 18,3 37,9 0,3 0,6 0,9 -3,0 -6,0 -10,0 0,6 -3,34 0,38 -51,1 30,4 -9,-10 -12,-4 -33,0 -46,0 0,3 0,7 0,10 H -3 c 0,-4 0,-7 0,-10 -17,-1 1,6 -28,10 1,-17 0,-30 0,-47 16,-8 6,11 9,-9 -11,-6 -10,7 -9,-10 3,-1 25,-20 19,0 3,0 6,0 9,0 v -18 h 19 c -3,-15 11,-4 9,-28 -3,0 -6,0 -9,0 -2,-8 0,-20 0,-28 -18,-9 -6,12 -10,-10 16,-7 23,-5 47,-9 v -19 c 0,0 -16,-8 -19,-9 0,-11 3,-18 0,-28 14,-12 7,8 10,9 h 18 c 6,-16 6,-31 9,-46 4,0 7,0 10,0 z" class="fil3" id="60592192"></path>
      <path style="fill:#007f00;fill-opacity:1" d="m 155,3356 c 17,-4 26,12 10,9 0,3 0,6 0,9 -20,-1 -39,7 -19,-9 25,-20 -29,-3 9,-9 z" class="fil3" id="60592280"></path>
      <path style="fill:#007f00;fill-opacity:1" d="m 90,3337 c 14,7 -9,19 -9,19 1,-6 -5,-26 9,-19 z" class="fil3" id="60592368"></path>
      <path style="fill:#007f00;fill-opacity:1" d="m 99,3309 c 22,-6 0,4 10,9 -3,0 -6,0 -10,0 0,3 0,7 0,10 -19,3 -8,-17 0,-19 z" class="fil3" id="60592456"></path>
      <path style="fill:#007f00;fill-opacity:1" d="m 230,3281 c 21,-6 0,4 9,9 -3,0 -6,0 -9,0 0,3 0,7 0,10 -19,3 -8,-17 0,-19 z" class="fil3" id="60592544"></path>
      <path style="fill:#007f00;fill-opacity:1" d="m 239,3225 c 3,0 7,0 10,0 -5,20 -7,24 -10,47 -17,0 -11,-50 0,-47 z" class="fil3" id="60592632"></path>
      <path style="fill:#007f00;fill-opacity:1" d="m 249,3141 c 25,-7 0,28 0,28 -17,3 -11,-25 0,-28 z" class="fil3" id="60592720"></path>
      <path style="fill:#007f00;fill-opacity:1" d="m 118,3076 c 0,3 0,6 0,9 12,6 11,8 19,19 -7,4 -20,-3 -28,0 0,3 0,6 0,9 -12,6 -16,12 -28,19 0,5 2,23 0,28 12,0 25,-5 37,0 2,-3 19,-28 19,-28 3,0 6,0 9,0 9,-14 -1,-25 9,-28 h 19 v -19 c 15,-8 40,-2 56,-9 -1,2 -17,27 -19,28 -3,0 -6,0 -9,0 -6,15 16,21 9,28 -16,15 -9,14 -18,37 -4,0 -6,0 -10,0 v 19 c -3,0 -6,0 -9,0 -2,8 3,20 0,28 -28,1 -27,-11 -37,-10 0,4 0,7 0,10 -8,1 -20,-4 -28,0 -122,42 126,-13 -10,9 5,21 10,47 10,47 -14,8 -28,-19 -28,-19 -23,-5 3,17 -19,9 0,4 0,7 0,10 -3,0 -6,0 -9,0 0,9 3,19 0,28 l -19,9 c 2,-15 9,-18 10,-19 4,-21 -3,-52 0,-74 h 18 c 0,-4 0,-6 0,-10 0,-3 0,-6 0,-9 -7,0 -21,2 -28,0 0,-3 0,-6 0,-9 3,0 7,0 10,0 0,-6 2,-46 0,-47 h 18 c 7,-12 3,-38 9,-46 h 19 c 0,-4 0,-7 0,-10 15,-5 18,-2 28,-9 z" class="fil3" id="60592808"></path>
      <path style="fill:#007f00;fill-opacity:1" d="m 221,3020 c -8,1 2,11 9,9 0,-3 0,-6 0,-9 3,0 6,0 9,0 -1,1 0,25 0,28 -8,0 -20,-4 -28,0 0,3 0,6 0,9 -20,4 -8,-36 10,-37 z" class="fil3" id="60592896"></path>
      <path style="fill:#007f00;fill-opacity:1" d="m 249,2973 c 13,7 -10,19 -10,19 2,-6 -4,-26 10,-19 z" class="fil3" id="60592984"></path>
      <path style="fill:#007f00;fill-opacity:1" d="m 16,2964 c -8,52 -8,80 0,131 -6,3 -23,5 -28,9 -16,9 9,9 9,9 -4,39 -4,40 -9,75 3,0 6,0 9,0 0,3 0,6 0,9 l -19,9 c -3,9 0,19 0,28 -1,-17 -9,10 -9,10 3,0 6,0 9,0 1,17 2,3 -9,9 3,20 -7,1 9,9 0,15 -1,32 0,47 h -18 c 0,3 0,6 0,9 -4,0 -6,0 -10,0 v 19 c 13,3 20,-7 19,9 -3,0 -6,0 -9,0 -2,9 17,15 9,19 -18,9 -15,62 -19,93 h -18 c -2,-1 -8,-15 -10,-19 -3,0 -6,0 -9,0 -3,-2 20,-28 0,-18 4,-12 -15,-9 -9,-28 h 18 c 5,-16 6,-33 10,-47 3,0 6,0 9,0 3,-17 1,-4 -9,-9 2,-31 -2,-56 9,-75 0,0 21,-9 9,-18 h -18 c -3,-10 18,-15 9,-19 h -19 c 0,-14 -3,-24 0,-37 2,-10 -3,1 28,-10 v -18 c 4,0 7,0 10,0 4,-10 -19,-15 -10,-19 4,0 7,0 10,0 5,-34 2,-42 9,-74 -3,0 -6,0 -9,0 v -19 c 3,0 6,0 9,0 3,-2 8,-16 9,-19 3,0 7,0 10,0 5,-21 -18,-22 -10,-46 0,-1 33,-15 38,-19 z" class="fil3" id="60593072"></path>
      <path style="fill:#007f00;fill-opacity:1;stroke:#ffffff;stroke-width:14" d="m 221,2945 c 13,6 5,3 18,10 -2,7 7,25 -9,18 0,-3 0,-6 0,-9 -3,0 -6,0 -9,0 0,0 -24,-29 0,-19" class="fil4 str0" id="60593160"></path>
      <path style="fill:#007f00;fill-opacity:1" d="m 109,2945 c 10,9 12,4 28,10 3,27 -1,8 18,18 -6,19 -2,27 -9,47 -45,131 14,-136 -9,9 -10,0 -30,-4 -38,0 v 19 c -13,7 -6,2 -18,9 -3,-16 0,-39 0,-56 H 62 v 19 c -3,0 -6,0 -9,0 1,-2 -2,-27 0,-28 4,-3 22,0 28,0 4,-7 -3,-20 0,-28 z" class="fil3" id="60593248"></path>
      <path style="fill:#007f00;fill-opacity:1" d="m 25,2945 c 13,7 -9,19 -9,19 1,-6 -5,-26 9,-19 z" class="fil3" id="60593336"></path>
      <path style="fill:#007f00;fill-opacity:1" d="m 267,2917 c 14,7 -9,19 -9,19 1,-6 -5,-26 9,-19 z" class="fil3" id="60593424"></path>
      <path style="fill:#007f00;fill-opacity:1" d="m 16,2834 c 0,3 0,6 0,9 h 18 c 7,-30 8,9 10,9 -14,-10 -9,9 -10,9 -3,0 -6,0 -9,0 6,25 -11,0 9,10 0,14 -2,23 0,37 3,0 7,0 10,0 -4,1 -15,40 -19,9 0,3 16,27 9,28 -41,6 20,1 -9,-9 -11,-4 -17,3 -28,0 0,-3 0,-6 0,-9 -2,7 -18,-13 -9,-19 H 6 c 1,-27 -21,-22 -9,-28 18,-9 7,-24 9,-46 3,0 7,0 10,0 z" class="fil3" id="60593512"></path>
      <path style="fill:#007f00;fill-opacity:1" d="m 295,2600 c 0,4 0,7 0,10 -16,8 -6,18 -9,37 2,-4 24,2 28,0 5,-3 -5,-26 18,-37 0,-3 0,-6 0,-10 -14,0 -22,0 -37,0 z" class="fil3" id="60593600"></path>
      <path style="fill:#007f00;fill-opacity:1" d="m 370,2545 c -7,20 -4,17 -10,37 -3,0 -6,0 -9,0 -4,14 4,23 0,37 -3,0 -6,0 -9,0 0,0 -17,51 0,37 -14,9 25,11 28,10 0,-3 0,-6 0,-10 3,0 6,0 9,0 3,-2 0,-32 0,-37 -3,0 -6,0 -9,0 -1,-4 8,-28 9,-19 29,-14 -32,-7 9,-9 2,-13 10,-61 0,-37 0,-3 0,-6 0,-9 z" class="fil3" id="60593688"></path>
      <path style="fill:#007f00;fill-opacity:1" d="m 174,2535 -9,38 c -30,11 -11,-21 -19,-28 17,-6 15,-3 28,-10 z" class="fil3" id="60593776"></path>
      <path style="fill:#007f00;fill-opacity:1" d="m 174,2489 c 8,2 19,22 0,18 0,-3 0,-6 0,-9 -14,0 -14,-13 0,-9 z" class="fil3" id="60593864"></path>
      <path style="fill:#007f00;fill-opacity:1" d="m 342,2339 c -2,11 -19,19 -19,19 -3,10 0,18 0,28 3,0 7,0 9,0 2,19 -7,21 -18,28 -9,5 11,9 9,19 0,0 -33,18 0,18 0,4 0,7 0,10 -3,0 -6,0 -9,0 -7,18 -4,4 -9,28 26,-9 -7,3 9,9 11,4 16,-3 28,0 1,-12 18,-19 18,-19 5,-16 -6,-33 -9,-46 h 19 v -19 c -11,36 -10,-37 -10,-37 h 19 c 0,-5 -2,-23 0,-28 -19,-6 -23,0 -37,-10 z" class="fil3" id="60593952"></path>
      <path style="fill:#007f00;fill-opacity:1" d="m 416,2097 c 0,3 0,7 0,9 h -18 c 0,4 0,7 0,10 -23,9 -45,55 0,37 l 18,-28 h 19 c -8,-7 10,-38 -19,-28 z" class="fil3" id="60594040"></path>
      <path style="fill:#007f00;fill-opacity:1" d="m 985,261 c 0,3 0,6 0,9 h 19 c -1,0 -1,-9 -19,-9 z" class="fil3" id="60594128"></path>
      <path style="fill:#007f00;fill-opacity:1" d="m 938,177 c 0,3 0,6 0,9 h 19 c 0,0 0,-9 -19,-9 z" class="fil3" id="60594216"></path>
      <path style="fill:#007f00;fill-opacity:1" d="m 668,130 c 32,-23 9,38 9,38 -34,5 -25,-47 -9,-38 z" class="fil3" id="60594304"></path>
      <path style="fill:#007f00;fill-opacity:1" d="m 696,93 c 16,0 7,14 9,28 h -18 c 2,-14 -8,-28 9,-28 z" class="fil3" id="60594392"></path>
      <path style="fill:#007f00;fill-opacity:1" d="m 733,65 c 15,-5 2,18 0,28 -30,8 -18,-22 0,-28 z" class="fil3" id="60594480"></path>
      <path style="fill:#007f00;fill-opacity:1" d="m 836,0 c 9,0 19,0 28,0 2,6 9,37 9,37 8,3 19,-16 37,-9 -5,17 -2,29 -18,37 -7,3 11,10 9,19 h 19 c 0,3 0,6 0,9 h 18 c 4,2 -8,15 -9,19 5,3 22,5 28,9 l 9,19 h 19 c 1,1 6,32 9,37 l 28,19 v 18 c -6,0 -21,3 -28,0 0,3 0,7 0,10 h 19 c 33,11 -35,12 9,9 0,-3 0,-6 0,-9 h 19 c 3,18 -6,20 9,28 1,17 3,3 -9,9 0,14 -2,23 0,37 3,0 6,0 9,0 3,21 -6,29 10,37 0,4 0,7 0,10 -9,4 -14,4 -10,18 l 19,10 c 10,16 1,45 9,65 3,7 26,5 28,9 5,10 -2,26 0,38 3,0 7,0 9,0 1,6 0,23 0,27 4,0 7,0 10,0 3,23 -5,30 -10,47 4,0 7,0 10,0 -1,7 -15,16 -10,19 11,5 13,22 10,37 0,0 -9,1 -10,19 11,5 12,-9 10,9 -3,0 -6,0 -10,0 0,14 2,23 0,37 -3,0 -6,0 -9,0 -3,16 4,41 0,56 -3,0 -6,0 -9,0 -6,27 -2,30 -9,56 -4,0 -7,0 -10,0 -4,23 10,15 10,37 -4,0 -7,0 -10,0 -7,44 -4,64 -9,112 -3,0 -6,0 -9,0 -9,4 11,9 9,19 l -19,9 c -4,11 2,25 0,38 -3,0 -6,0 -9,0 -6,33 -2,40 -9,74 -4,0 -7,0 -10,0 -3,18 3,38 0,56 -3,0 -6,0 -9,0 -1,21 14,16 9,37 -3,0 -6,0 -9,0 v 19 c -3,0 -6,0 -9,0 -10,25 -2,36 -10,65 -3,0 -6,0 -9,0 0,11 2,17 0,28 -3,0 -6,0 -9,0 -3,14 3,23 0,37 -4,0 -6,0 -10,0 -4,24 4,51 0,75 -3,0 -6,0 -9,0 -6,33 -3,41 -9,75 -4,0 -6,0 -10,0 -3,16 5,39 0,56 -3,0 -6,0 -9,0 -6,20 -2,18 -9,37 -3,0 -6,0 -10,0 -4,16 0,39 0,56 -3,0 -6,0 -9,0 0,3 0,6 0,9 0,1 22,4 19,19 h -19 c -3,8 2,19 0,28 -3,0 -6,0 -9,0 v 18 c -3,0 -6,0 -10,0 -3,12 13,27 10,28 -17,8 -4,8 -10,28 -3,0 -6,0 -9,0 -5,48 0,76 -9,121 -3,0 -6,0 -10,0 0,7 1,23 0,28 -3,0 -6,0 -9,0 -7,32 -4,59 -9,94 -3,0 -6,0 -9,0 v 18 c 3,0 6,0 9,0 78,61 -84,-37 9,10 0,3 0,6 0,9 l -28,9 c -1,15 0,32 0,47 -16,8 -7,-11 -9,9 8,4 13,-7 9,9 -3,0 -6,0 -9,0 v 19 c -3,0 -6,0 -9,0 -3,13 10,9 9,28 -3,0 -6,0 -9,0 0,6 0,23 0,28 -4,0 -7,0 -10,0 -3,15 2,31 0,47 -3,0 -6,0 -9,0 0,14 2,23 0,37 -3,0 -6,0 -9,0 -4,18 3,37 0,56 -4,0 -7,0 -10,0 -5,37 -4,48 -9,84 -3,0 -6,0 -9,0 -3,17 7,49 0,65 h -19 c 0,3 0,6 0,9 -24,12 -32,35 -56,47 0,3 0,6 0,9 -3,0 -6,0 -9,0 -3,11 -4,46 0,56 2,8 14,-1 18,19 4,0 7,0 10,0 6,18 12,46 9,74 -3,0 -6,0 -9,0 0,15 4,34 0,47 l -19,9 c -6,21 13,14 9,28 h -18 c -5,18 3,38 0,56 -4,0 -6,0 -10,0 0,14 2,23 0,37 -3,0 -6,0 -9,0 -1,12 12,26 9,28 -9,9 -5,2 -9,19 -3,0 -6,0 -9,0 -5,36 0,76 0,112 10,5 11,-7 9,9 -3,0 -6,0 -9,0 v 19 c -3,0 -6,0 -10,0 -8,31 0,50 -9,84 -3,0 -6,0 -9,0 v 18 c -3,0 -6,0 -10,0 -7,20 -2,28 -9,47 -3,0 -6,0 -9,0 -4,16 4,41 0,56 -3,0 -6,0 -10,0 v 19 c -27,13 5,-19 -9,9 -3,0 -6,0 -9,0 -5,17 1,38 0,56 -3,0 -6,0 -9,0 -2,17 -3,3 9,9 -3,20 7,1 -9,10 0,16 3,31 0,46 -4,0 -7,0 -10,0 -3,11 3,16 0,28 -3,0 -6,0 -9,0 -5,25 -4,35 -9,56 h -19 c -4,24 5,11 19,19 v 18 c -4,0 -7,0 -10,0 4,21 -7,1 10,10 0,3 0,6 0,9 -21,-11 0,19 0,19 l -28,18 c -8,32 2,-11 9,10 5,14 -1,23 -9,28 0,3 0,6 0,9 12,6 8,9 9,28 -5,1 -19,18 -19,18 -25,5 3,-3 -9,-9 h -19 c 0,14 4,34 0,47 -1,2 -14,4 -18,18 -6,0 -25,-3 -28,0 2,11 20,55 18,66 -3,0 -6,0 -9,0 v 18 c 3,0 6,0 9,0 0,15 2,23 0,38 -3,0 -6,0 -9,0 0,6 1,23 0,28 -3,0 -6,0 -9,0 -3,15 -1,13 9,18 0,0 -3,10 -9,28 -3,0 -6,0 -10,0 -3,21 14,14 10,28 -3,0 -6,0 -10,0 0,6 1,23 0,28 h -18 c -9,19 13,26 -10,37 0,4 0,7 0,10 10,4 14,4 10,18 -3,0 -6,0 -10,0 v 19 c -28,14 5,-19 -9,9 -3,0 -6,0 -9,0 -5,12 4,26 0,38 -3,0 -6,0 -10,0 0,3 0,6 0,9 16,8 24,21 19,46 h -19 c -2,5 0,24 0,28 -3,2 -18,10 -18,10 0,0 26,31 18,37 -18,13 -10,21 -18,47 h -19 c -5,19 13,17 10,46 -4,0 -7,0 -10,0 0,9 1,20 0,28 -3,0 -6,0 -9,0 -5,22 2,43 0,65 h -19 c -2,15 0,33 0,47 11,6 11,-8 10,9 -4,0 -7,0 -10,0 -3,9 2,20 0,28 -3,0 -6,0 -9,0 v 19 c -3,0 -6,0 -9,0 -2,11 0,17 0,28 3,0 6,0 9,0 v 19 c -3,0 -6,0 -9,0 -2,5 3,24 0,28 -8,7 -36,7 -38,9 0,0 -4,12 -9,28 5,2 24,0 28,0 v 19 c -3,0 -6,0 -9,0 0,-4 0,-7 0,-10 -5,0 -23,1 -28,0 v 19 c -4,0 -6,0 -10,0 -4,16 5,41 0,56 -3,0 -6,0 -9,0 v 18 h -19 c -13,-31 16,11 -9,-9 0,-3 0,-6 0,-9 -16,-8 -4,0 -9,-19 0,0 -26,-9 0,-9 0,-3 0,-6 0,-9 -1,-2 -16,-8 -19,-10 0,-3 0,-6 0,-9 11,-6 11,-12 9,-28 -3,0 -6,0 -9,0 0,-15 1,-23 0,-37 3,0 6,0 9,0 v -19 c -3,0 -6,0 -9,0 v -19 c -3,0 -6,0 -9,0 0,0 4,-24 9,-9 v -19 H 99 c -1,-15 0,-31 0,-46 h 19 c 4,-20 0,-46 0,-66 -3,0 -6,0 -9,0 0,0 8,-26 9,-9 31,-15 -35,-7 9,-9 -5,-1 -6,-19 -9,-28 -3,18 -9,-9 -9,-9 0,0 15,-8 18,-10 1,-24 -10,-13 -9,-37 3,0 6,0 9,0 3,-18 -2,-38 0,-56 4,0 7,0 10,0 1,-18 0,-38 0,-56 3,0 6,0 9,0 1,-20 -13,-17 -9,-37 3,0 6,0 9,0 0,-15 -2,-24 0,-37 2,1 18,11 19,9 2,-19 1,-4 -10,-9 0,-32 -4,-63 0,-94 4,0 7,0 10,0 3,-15 -4,-31 0,-46 3,0 6,0 9,0 1,-8 0,-20 0,-28 3,0 6,0 9,0 2,-17 1,-5 -9,-10 0,-14 -2,-31 0,-46 3,0 6,0 9,0 6,-24 5,-40 10,-65 3,0 6,0 9,0 -3,-2 -20,-40 -19,-47 h 19 c 2,-14 0,-23 0,-37 3,0 6,0 9,0 4,-31 -9,-38 -9,-66 0,-3 0,-6 0,-9 16,1 6,-7 9,-19 -1,18 -9,-9 -9,-9 3,0 6,0 9,0 1,-26 -7,-59 0,-84 4,0 7,0 10,0 v -18 c 3,0 6,0 9,0 2,-9 -3,-20 0,-28 -6,-5 -21,-8 -19,-19 h 19 c 0,-3 0,-6 0,-9 3,0 6,0 9,0 0,-33 0,-61 0,-94 3,0 7,0 10,0 2,-17 -3,-38 0,-55 -62,0 39,-8 -10,9 -20,7 -25,-7 -37,-9 v -19 c 13,-4 5,-11 19,-9 0,0 5,13 18,9 104,-36 -109,2 10,-9 1,-15 0,-23 0,-38 3,0 6,0 9,0 1,-12 -13,-25 -9,-28 3,0 6,0 9,0 v -18 c 3,0 6,0 9,0 4,-15 -4,-24 0,-38 h 19 c 5,-19 -2,-45 0,-65 3,0 6,0 9,0 0,-22 -3,-52 0,-74 3,0 7,0 10,0 1,-16 0,-32 0,-47 3,0 6,0 9,0 1,-20 -12,-15 -9,-28 3,0 6,0 9,0 1,-8 0,-20 0,-28 3,0 6,0 9,0 -7,-4 11,-46 -9,-56 0,-3 0,-6 0,-9 h 18 c 3,-14 -14,-24 -9,-28 3,0 7,0 9,0 6,-20 5,-17 10,-37 h -19 v -19 h 19 v -19 c 3,0 6,0 9,0 11,-36 4,-63 9,-102 -19,4 -45,0 -65,0 -7,26 -2,36 -9,65 -3,0 -6,0 -9,0 v 19 c -4,0 -7,0 -10,0 -2,14 10,18 10,18 2,10 -21,65 0,56 0,3 0,7 0,9 h -19 c -3,-5 -19,-18 -19,-18 v -19 c -3,0 -6,0 -9,0 -5,-16 1,-5 9,-9 19,-10 -27,-10 -9,-19 3,0 6,0 9,0 8,-18 3,-17 10,-37 3,0 6,0 9,0 5,-23 -2,-52 0,-75 -11,5 -34,0 -47,0 0,7 0,23 0,28 12,6 11,-8 10,10 -4,0 -6,0 -10,0 0,6 1,23 0,28 h -18 c -9,27 2,87 -10,111 -1,3 -25,0 -28,0 -6,22 -3,17 -9,38 -3,0 -6,0 -9,0 -4,14 4,23 0,37 -3,0 -6,0 -10,0 -6,-22 -5,-28 -9,-47 -16,5 -7,-10 -9,-18 13,0 25,3 37,0 0,-3 0,-6 0,-10 -37,18 -24,-28 -9,-27 5,-16 4,-17 9,-28 3,0 6,0 9,0 -1,-1 0,-26 0,-28 -98,7 75,-20 -9,9 h -19 v -19 c 1,-3 39,-14 10,-18 12,-4 33,0 37,-10 2,-6 -4,-24 0,-28 -13,-2 -13,14 -19,19 -6,-3 -10,-12 -18,-9 v -19 c -4,-3 -23,0 -28,0 v -19 c 3,0 6,0 9,0 5,-15 4,-17 9,-28 3,0 28,1 28,0 4,-6 0,-37 0,-46 2,-1 19,-10 19,-10 5,-19 -14,-16 -9,-27 h 18 c 7,-24 2,-36 10,-56 3,0 6,0 9,0 v -19 c 3,0 6,0 9,0 v -19 c -380,-190 352,204 -9,-9 -2,-1 -44,-9 -47,-9 4,-8 -4,-20 0,-28 h 19 v -19 c 3,0 6,0 9,0 4,-14 -4,-33 0,-47 -21,6 -21,-19 -46,-9 -2,1 0,25 0,28 -10,3 -35,7 -38,9 v 19 c 0,0 25,-2 10,-9 3,0 6,0 9,0 0,3 0,6 0,9 3,0 6,0 9,0 -3,11 4,17 0,28 -1,3 -15,6 -18,9 v 19 c 4,-16 9,9 9,9 -3,0 -6,0 -9,0 -6,28 -2,29 -10,56 -3,0 -6,0 -9,0 -4,20 0,45 0,65 -3,0 -6,0 -9,0 0,4 0,7 0,10 9,4 11,4 9,18 -3,0 -6,0 -9,0 0,15 2,23 0,38 -3,0 -6,0 -10,0 -1,10 11,27 10,28 -17,8 -10,70 -19,93 l -18,9 v -18 c -19,-7 -27,6 -38,9 7,-20 -16,-18 -9,-37 h 19 c 0,-4 0,-6 0,-10 3,0 6,0 9,0 v -18 c 0,0 16,-9 19,-10 v -18 c -9,-5 -14,6 -10,-10 9,-1 20,0 28,0 0,-3 0,-6 0,-9 -12,-6 -8,-1 -18,-9 -22,-17 25,-7 -10,-10 7,-19 5,-32 10,-56 h 18 c 3,-14 -1,-14 -9,-18 0,-3 0,-6 0,-9 3,0 6,0 9,0 12,-7 -9,-19 -9,-19 0,-3 0,-6 0,-9 14,-8 7,-9 9,-28 -10,-6 -12,8 -9,-10 3,0 6,0 9,0 v -18 c 3,0 7,0 9,0 4,-9 0,-19 0,-28 20,-11 4,14 10,-10 0,0 -25,-2 -10,-9 19,-9 5,13 10,-9 3,0 6,0 9,0 2,-13 -11,-9 -9,-28 3,0 6,0 9,0 4,-46 4,-67 9,-103 -9,-5 -13,7 -9,-9 3,0 7,0 9,0 6,-19 5,-26 10,-47 3,0 6,0 9,0 2,-16 5,-50 0,-65 H 99 c 0,-1 -1,-27 0,-28 4,0 7,0 10,0 v -19 c 3,0 6,0 9,0 11,-42 1,-81 9,-121 4,0 7,0 10,0 1,-14 0,-23 0,-37 3,0 6,0 9,0 7,-29 0,-41 9,-65 l 19,-10 c 4,-16 -1,-5 -9,-9 0,-3 0,-6 0,-9 3,0 6,0 9,0 15,-8 -9,-10 -9,-10 5,-15 11,-7 9,-28 -3,0 -6,0 -9,0 0,-15 -2,-32 0,-46 3,0 6,0 9,0 1,-5 0,-22 0,-28 3,0 6,0 9,0 4,-17 -2,-39 0,-56 4,0 7,0 10,0 6,-43 3,-59 9,-103 3,0 6,0 9,0 2,-21 -4,-44 0,-65 4,0 7,0 10,0 0,-5 0,-22 0,-28 3,0 6,0 9,0 4,-22 -9,-56 9,-65 0,-3 0,-6 0,-9 -10,-5 -13,-12 -9,-28 l 19,-10 c 5,-13 -3,-32 0,-46 3,0 6,0 9,0 7,-47 4,-63 9,-112 3,0 7,0 10,0 1,-19 -13,-16 -10,-28 h 19 c 7,-34 1,-42 9,-75 3,0 7,0 10,0 5,-25 4,-38 9,-65 3,0 6,0 9,0 2,-15 -3,-31 0,-47 3,0 7,0 9,0 2,-11 0,-16 0,-27 4,0 7,0 10,0 7,-35 0,-60 9,-94 3,0 7,0 9,0 v -18 c 4,0 7,0 10,0 4,-20 -4,-45 0,-66 3,0 6,0 9,0 7,-33 4,-42 9,-74 4,0 7,0 10,0 2,-16 -3,-30 0,-47 3,0 6,0 9,0 2,-18 -4,-38 0,-56 3,0 6,0 9,0 2,-11 0,-17 0,-28 4,0 7,0 10,0 3,-14 -3,-23 0,-37 3,0 6,0 9,0 7,-27 3,-28 9,-56 4,0 7,0 10,0 2,-12 -5,-27 0,-37 h 18 c 0,-3 0,-6 0,-9 3,0 7,0 10,0 12,-13 -3,-37 18,-47 0,-3 0,-6 0,-9 5,-5 21,2 28,0 l 19,-28 c 11,-8 35,-3 46,-10 v -18 h 19 c 3,-7 6,-18 9,-19 11,-5 26,2 38,0 0,-3 0,-6 0,-9 19,-5 32,-1 46,-10 l 19,-28 c 3,0 6,0 9,0 v -18 c 4,0 7,0 10,0 v -19 h 18 v -18 h 19 c 2,-5 9,-19 9,-19 3,0 7,0 10,0 v -19 c 9,-6 25,4 37,0 0,-3 0,-6 0,-9 10,-5 7,-4 18,-9 -1,-2 0,-25 0,-28 -12,-7 -5,-3 -18,-10 0,-3 0,-6 0,-9 -11,-4 -17,4 -28,0 0,0 -9,-18 -9,-19 9,-2 22,6 18,-9 0,0 -16,-8 -18,-9 0,-18 3,-40 0,-56 -14,-3 -24,0 -38,0 V 37 c 3,0 7,0 10,0 7,-21 -11,0 9,-9 V 9 c 11,-5 34,0 47,0 0,-3 0,-6 0,-9 3,0 6,0 9,0 z" class="fil3" id="60594568"></path>
    </g>
    <path id="60594744" class="fil5" d="m 97.564198,53.561169 c 0,0 0.152524,0.305047 0.177944,0.330468 -0.101682,0 -0.406728,-0.02542 -0.508411,0 0.152523,-0.101682 0.07626,-0.355888 0.330467,-0.330468 z" style="fill:#004cff;fill-opacity:1;stroke-width:0.0254206;image-rendering:optimizeQuality;shape-rendering:geometricPrecision;text-rendering:geometricPrecision"></path>
    <path id="60594832" class="fil5" d="m 116.2229,74.711094 c 0,0 0.15253,0.686356 0.25421,0.711777 0.35589,0.203365 0.17795,-0.305048 0.22879,-0.457571 -0.33047,-0.177944 -0.1271,-0.07626 -0.483,-0.254206 z" style="fill:#004cff;fill-opacity:1;stroke-width:0.0254206;image-rendering:optimizeQuality;shape-rendering:geometricPrecision;text-rendering:geometricPrecision"></path>
    <path id="60594920" class="fil5" d="m 121.20534,73.058756 v 0.482991 c 0.0763,0 0.15253,0 0.22878,0 -0.0763,-0.305047 0.2288,-0.482991 -0.22878,-0.482991 z" style="fill:#004cff;fill-opacity:1;stroke-width:0.0254206;image-rendering:optimizeQuality;shape-rendering:geometricPrecision;text-rendering:geometricPrecision"></path>
    <path id="60595008" class="fil5" d="m 120.01057,72.118195 0.25421,0.482991 c 0.40673,0.07626 0.15252,-0.228785 0.22878,-0.482991 z" style="fill:#004cff;fill-opacity:1;stroke-width:0.0254206;image-rendering:optimizeQuality;shape-rendering:geometricPrecision;text-rendering:geometricPrecision"></path>
    <path id="60595096" class="fil5" d="m 121.20534,70.465857 v 0.45757 c 0.0763,0 0.15253,0 0.22878,0 -0.0763,-0.279626 0.2288,-0.45757 -0.22878,-0.45757 z" style="fill:#004cff;fill-opacity:1;stroke-width:0.0254206;image-rendering:optimizeQuality;shape-rendering:geometricPrecision;text-rendering:geometricPrecision"></path>
    <path id="60595184" class="fil5" d="m 121.68833,65.254638 0.22879,0.45757 c 0.43215,0.07626 0.15252,-0.203365 0.22878,-0.45757 z" style="fill:#004cff;fill-opacity:1;stroke-width:0.0254206;image-rendering:optimizeQuality;shape-rendering:geometricPrecision;text-rendering:geometricPrecision"></path>
    <path id="60595272" class="fil5" d="m 91.819147,57.196312 v 0.457571 c 0.07626,0 0.152523,0 0.228785,0 -0.07626,-0.279626 0.203365,-0.457571 -0.228785,-0.457571 z" style="fill:#004cff;fill-opacity:1;stroke-width:0.0254206;image-rendering:optimizeQuality;shape-rendering:geometricPrecision;text-rendering:geometricPrecision"></path>
    <path id="60595360" class="fil5" d="m 116.47711,51.985093 c 0,0.07626 0,0.152523 0,0.228785 h 0.45757 c -0.0254,0 -0.0254,-0.228785 -0.45757,-0.228785 z" style="fill:#004cff;fill-opacity:1;stroke-width:0.0254206;image-rendering:optimizeQuality;shape-rendering:geometricPrecision;text-rendering:geometricPrecision"></path>
    <path id="60595448" class="fil5" d="m 114.34178,50.790326 c 0,0 0,0.686355 0,0.711776 0.53383,0 0.53383,-0.711776 0,-0.711776 z" style="fill:#004cff;fill-opacity:1;stroke-width:0.0254206;image-rendering:optimizeQuality;shape-rendering:geometricPrecision;text-rendering:geometricPrecision"></path>
    <path id="60595536" class="fil5" d="m 109.84234,49.926025 c 0,0.07626 0,0.177945 0,0.228786 0.55925,0 1.32187,-0.101682 1.88112,0 0,0.101682 0,0.177944 0,0.254205 0.27963,0.02542 0.43216,0 0.71178,0 0,0.07626 0,0.152524 0,0.228786 1.14393,0.07626 -0.6101,0.05085 0.25421,-0.228786 0.27963,-0.101682 0.40673,0.101683 0.71177,0 1.7286,-0.610093 -1.8557,-0.152523 0.22879,-0.254205 0,0.101682 0,0.177944 0,0.254205 0.55925,0 1.32187,-0.127102 1.88112,0 0,0.07626 0,0.152524 0,0.228786 0.17794,0 0.58467,-0.02542 0.71177,0 0,0.07626 0,0.152524 0,0.228785 0.3559,0.07626 0.86431,-0.127102 1.19477,0 l 0.22879,0.482991 c 0.33046,0.101682 0.83887,-0.101682 1.19477,0 0,0.07626 0,0.152524 0,0.228786 h 0.48299 c 0,0.101682 0,0.177944 0,0.254205 0.17794,0.02542 0.53383,-0.101683 0.71178,0 0,0.07626 0,0.152523 0,0.228786 0.50841,0.254206 0.66093,0.686355 1.16934,0.940562 0,0.07626 0,0.177943 0,0.254204 0.20337,0.127104 0.48299,0.05085 0.71178,0.228786 0,0 -0.40673,0.610094 -0.45757,0.711776 -0.40673,-0.07626 -0.15253,-0.07626 -0.48299,-0.228785 0.10168,0.279626 -0.10168,0.610095 0,0.940562 0.0763,0 0.15252,0 0.22878,0 v 0.457571 l 0.48299,0.254205 v 0.457571 c 0.0763,0 0.15252,0 0.22879,0 0.0508,0.45757 -0.17795,0.177944 -0.45757,0.254206 -0.15253,0.533832 -0.0254,0.533832 -0.25421,0.940561 0.43215,0.228785 0.53383,-0.02542 0.71178,0.482991 -0.0763,0 -0.15253,0 -0.22879,0 -0.0763,0.101683 -0.15252,0.40673 -0.22878,0.457571 -0.10168,0 -0.17794,0 -0.25421,0 0,0 -0.35588,0.762617 -0.22878,0.711776 0.53383,-0.177944 0.27963,1.042244 0.48299,1.423552 0,0 0.33047,0.177945 0.45757,0.254206 v 0.457571 h 0.48299 c 0.8643,0.711776 -0.71178,0 0.22878,0.482991 0,0.07626 0,0.152524 0,0.228785 h 0.483 c -0.12711,0.228786 0,0.686356 0,0.940562 -0.88973,0 0.30505,-0.02542 -0.25421,0.254206 -0.0508,-0.05085 -0.81346,-0.177944 -0.22879,0.228785 v 0.482991 c 0.0763,0 0.17795,0 0.22879,0 0.10168,0 0.17794,0 0.25421,0 0.10168,0.330468 -0.33048,0.152524 -0.25421,0.711776 0.10168,0 0.17794,0 0.25421,0 v 0.457571 c 0.0763,0 0.15252,0 0.22878,0 0,0 0.43215,0.635515 0.483,0.711776 0.0763,0 0.15251,0 0.22878,0 v 0.482992 c 0.0763,0 0.15252,0 0.22878,0 0,0 -0.0254,0.584673 -0.22878,0.228785 0.15252,0.432149 0.0508,0.406729 0.22878,0.711775 0.10168,0 0.17795,0 0.25421,0 v 0.482992 c 0.0763,0 0.15252,0 0.22878,0 0.0254,0.152524 0,0.584674 0,0.711776 -0.0763,0 -0.15252,0 -0.22878,0 -0.10168,0.482991 -0.0508,1.169347 0,1.652339 0.0763,0 0.15252,0 0.22878,0 0.0508,0.355887 0,0.584673 0,0.94056 0.0763,0 0.15252,0 0.22879,0 0.0763,0.38131 -0.0763,0.584675 0,0.965983 -0.0763,0.05084 -0.88973,0.177944 -0.94056,0.228785 v 0.482991 c -0.0763,0 -0.15253,0 -0.22878,0 -0.15253,0.660936 -0.0509,0.762618 -0.25422,1.423553 -0.30504,0.02542 -0.45756,0.45757 -0.45756,0.45757 -0.66094,0.203365 -0.6101,-0.406729 -1.19477,-0.228785 v 0.482991 c -0.483,0.228785 -0.0508,-0.305047 -0.22879,0.228785 -0.0254,0 -0.71177,-0.05084 -0.71177,0 -0.1271,0.152524 0,0.737197 0,0.940562 -0.68636,0.330467 0.10168,-0.40673 -0.22878,0.228786 -0.78805,0 -1.60151,0 -2.38955,0 0,0.101681 0,0.177944 0,0.254205 -0.45756,0.05084 -1.19476,-0.177944 -1.65233,0 -0.0254,0 0,0.686356 0,0.711777 -0.53383,-0.02542 -0.30505,0.228785 -0.71178,0.228785 0,-0.07626 0,-0.152524 0,-0.228785 -0.35588,0 -0.83888,-0.101683 -1.19477,0 l -0.45757,0.711775 c -0.1271,0.05084 -1.62691,0.228786 -1.65233,0.228786 0,0 -0.22879,-0.432149 -0.483,-0.48299 -0.0508,0.457569 0,0.965981 0,1.423552 -0.45756,0.228785 -0.15252,-0.305047 -0.22878,0.254206 -0.30505,-0.152523 -0.83888,0 -1.19477,0 -0.10168,-0.381309 0.17795,-0.381309 -0.22878,-0.482992 0,-0.07626 0,-0.152523 0,-0.228785 -0.0763,0 -0.15253,0 -0.25421,0 -0.0508,0.02542 0,0.610095 0,0.711777 -0.0763,0.02542 -0.22879,0.228785 -0.22879,0.228785 -0.35588,0.127102 -0.61009,-0.127103 -0.94056,0 0,0.07626 0,0.152524 0,0.228785 -0.45756,0.101682 -0.61009,0.254206 -1.19477,0.254206 0,-0.101683 0,-0.177944 0,-0.254206 -0.33046,0 -0.88971,0.127103 -1.16934,0 l -0.25421,-0.45757 c -0.66093,-0.203365 -1.27103,-0.02542 -1.88112,-0.254206 l -0.2542,-0.457571 c -0.20337,-0.152523 -1.4744,-0.330467 -1.88113,-0.254206 0,0.101683 0,0.177945 0,0.254206 -0.40673,0.203365 -0.81346,0.737197 -1.42355,0.711777 l -0.48299,-0.711777 c -0.25421,-0.127102 -0.635517,0.05085 -0.940564,0 0,-0.101682 0,-0.152523 0,-0.254206 -0.584674,0 -1.321871,0.05084 -1.906544,0 -0.203365,-0.610093 0.127104,-0.635514 -0.228785,-0.711775 -0.43215,-0.07626 -0.991403,0 -1.423552,0 0,0.101682 0,0.177943 0,0.254204 -0.889721,0.02542 -1.016824,-0.305046 -1.881124,-0.254204 0,0.101682 0,0.177943 0,0.254204 -0.406729,0 -0.813458,0.07626 -1.194767,0 L 92.530923,76.948106 H 92.073352 L 91.590361,76.236329 H 91.10737 c -0.02542,-0.02542 -0.177944,-0.381309 -0.228785,-0.482991 -0.07626,0 -0.152524,0 -0.228786,0 0,-0.07626 0,-0.152524 0,-0.228785 h -0.482991 c -0.07626,-0.07626 -0.432149,-0.686356 -0.482991,-0.711777 h -0.45757 c 0,0 -0.203365,-0.406728 -0.254205,-0.482991 H 88.514471 C 88.387367,74.228103 88.412788,73.668851 88.260265,73.61801 h -0.457571 v -0.457571 l -0.940562,-0.711777 c -0.203363,-0.305046 0.02542,-0.533832 -0.254205,-0.711776 h -0.457571 c 0,-0.101682 0,-0.152523 0,-0.254206 h -0.48299 c 0,-0.07626 0,-0.152523 0,-0.228785 -0.203365,-0.05084 -0.508412,0.07627 -0.711777,0 0,-0.07626 0,-0.152523 0,-0.228786 -0.127103,0 -0.559252,0.02542 -0.711776,0 v -0.482991 c -0.177945,-0.07626 -0.508412,0.05084 -0.711777,0 0,-0.07626 0,-0.152523 0,-0.228784 -0.127102,0 -0.559253,0.02542 -0.711776,0 0,-0.07626 0,-0.152524 0,-0.254206 -0.203364,-0.02542 -0.482991,0 -0.711776,0 0,0.101682 0,0.177943 0,0.254206 -0.355889,0.05084 -0.584674,-0.02542 -0.940562,0 v -0.482991 c 0.127103,0.05084 0.584673,0 0.711777,0 0,-0.07626 0,-0.152524 0,-0.228786 -0.610095,-0.152524 -0.660936,-0.07626 -1.194768,-0.254206 0.07626,-0.406729 -0.05085,-0.737197 0,-1.169347 0.07626,0 0.177944,0 0.254206,0 0,-0.43215 0.07626,-0.991403 0,-1.423552 -0.101682,0 -0.177945,0 -0.254206,0 V 66.271461 L 79.973154,65.81389 c -0.07626,-0.254206 -0.07626,-1.169347 0,-1.423553 l 0.711777,-0.482991 c 0.355888,-0.330467 0.482991,-0.711776 0.940562,-0.940561 0,-0.07626 0,-0.152524 0,-0.254206 0.533832,-0.228785 0.381308,0.355888 0.965981,0.254206 l 0.228786,-0.482991 c 0.381309,-0.152524 0.88972,0 1.194767,-0.228785 0,0 0.203365,-1.169348 0.228786,-1.194768 h 0.482991 c 0.02542,-0.02542 0.177944,-0.406729 0.228785,-0.457571 h 0.482991 c 0.203364,-0.355888 0.02542,-1.398131 0.228786,-1.677758 0.02542,-0.05085 0.660934,0 0.711775,0 0.05084,-0.101683 0.228786,-0.45757 0.228786,-0.45757 0.07626,0 0.177944,0 0.254205,0 V 57.98435 c 0,0 -0.406728,-0.203364 -0.482991,-0.228785 0,-0.457571 -0.02542,-0.737197 0,-1.194767 0.07626,0 0.152524,0 0.228786,0 0.05084,-0.305047 0.254205,-1.652338 0.254205,-1.652338 l -0.965981,-0.711777 c 0.101682,-0.279626 0.406729,-0.305046 0.254205,-0.711776 -0.101682,0 -0.177944,0 -0.254205,0 -0.07626,0 -0.152524,0 -0.228785,0 v -0.48299 c 0.07626,0 0.152523,0 0.228785,0 0.02542,0 0.432149,-0.610095 0.48299,-0.711777 0.40673,0.07626 0.762618,0 1.194768,0 0,0.101682 0,0.177944 0,0.254206 0.381309,0.02542 1.016823,-0.101683 1.398133,0 0,0.07626 0,0.152523 0,0.228785 0.228784,0.05085 0.508411,-0.05085 0.711775,0 0,0.07626 0,0.152523 0,0.228786 0.228785,0 0.508412,-0.02542 0.711777,0 0,0.07626 0,0.177943 0,0.254204 0.406729,0.07627 0.813458,-0.101681 1.194767,0 0,0.07627 0,0.152524 0,0.228786 0.508412,0.07627 1.143926,-0.101682 1.652338,0 0,0.07627 0,0.152524 0,0.228785 0.533832,0.127104 0.915141,0.101683 1.423553,0.254206 0,0.07627 0,0.152524 0,0.228785 0.559252,0.101683 1.118505,-0.177943 1.652338,0 l 0.254205,0.482992 c 0.254207,0.101682 0.40673,-0.07626 0.711777,0 0,0.07626 0,0.152523 0,0.228785 h 0.45757 c 0,0.07626 0,0.152524 0,0.228785 0.228786,0.05085 0.508412,-0.05085 0.711777,0 0.305047,-0.635515 -0.40673,0.07626 0.254206,-0.228785 0,-0.228785 -0.101682,-0.508412 0,-0.711777 l 0.45757,-0.228785 c 0.05084,-0.127102 -0.07626,-0.635514 0,-0.711777 0.177944,-0.177943 0.610094,-0.05084 0.711776,-0.254204 0.152519,-0.330469 -0.101682,-0.152524 -0.228785,-0.228786 0.177944,-0.533833 -0.254205,0 0.228785,-0.228785 v -0.482991 c 0,0 0.432149,-0.228786 0.482989,-0.228786 0,-0.101683 0,-0.152523 0,-0.254205 h 0.48299 c 0,0.101682 0,0.177944 0,0.254205 0.43215,0.05085 1.01683,0.432151 1.65234,0.228786 0.17795,-0.07626 -0.20337,-0.610095 0,-0.711777 0.12711,-0.07626 0.55926,0 0.71178,0 0.10168,-0.305047 0.0763,-0.635515 0.22878,-0.711776 0.20336,-0.101682 0.50841,0.05085 0.71178,0 0,-0.07626 0,-0.152523 0,-0.228786 0.8643,0 1.75402,0.05084 2.61832,0 0,-0.07626 0,-0.152523 0,-0.254205 0.81346,0 2.05907,0.279626 2.82169,0 1.1185,-0.381309 -1.19477,-0.254206 0.2542,-0.228786 z" style="fill:#0000cc;fill-opacity:1;stroke-width:0.0254206;image-rendering:optimizeQuality;shape-rendering:geometricPrecision;text-rendering:geometricPrecision"></path>
    <g id="g3902" style="image-rendering:optimizeQuality;shape-rendering:geometricPrecision;text-rendering:geometricPrecision" transform="matrix(0.02542058,0,0,0.02542058,63.398934,0)">
      <path id="60595800" class="fil6" d="m -1781,5067 h -328 v -956 h -385 v -245 h 1098 v 245 h -385 z" style="fill:#000000;fill-opacity:1"></path>
      <path id="60595888" class="fil6" d="m 2258,4111 h -563 v 222 h 527 v 242 h -525 v 245 h 567 v 247 H 1377 V 3866 h 881 z" style="fill:#000000;fill-opacity:1"></path>
      <path id="60595976" class="fil6" d="M 2710,3866 V 5067 H 2380 V 3866 Z" style="fill:#000000;fill-opacity:1"></path>
      <path id="60596064" class="fil6" d="M 111,3866 V 5067 H -219 V 3866 Z" style="fill:#000000;fill-opacity:1"></path>
      <path id="60596152" class="fil6" d="M 608,5067 H 288 V 3866 h 534 c 180,0 268,20 346,80 80,61 127,171 127,297 0,157 -64,281 -168,333 -83,40 -165,55 -338,55 H 608 Z m 90,-660 c 184,0 247,-40 247,-157 0,-106 -60,-149 -214,-149 H 608 v 306 z" style="fill:#000000;fill-opacity:1"></path>
      <path id="60596240" class="fil6" d="m -1275,4832 -92,235 h -327 l 524,-1201 h 386 l 537,1201 h -365 l -99,-235 z m 278,-710 -189,476 h 381 z" style="fill:#000000;fill-opacity:1"></path>
    </g>
  </g>
</svg>